<svg xmlns="http://www.w3.org/2000/svg" viewBox="0 0 32.30407 36.96045"><defs><style>.cls-1{fill:#0071bc;}</style></defs><title>Asset 70</title><g id="Layer_2" data-name="Layer 2"><g id="Layer_1-2" data-name="Layer 1"><path class="cls-1" d="M30.00113,5.42041a20.40461,20.40461,0,0,0-27.69995,0,1.01,1.01,0,0,0-.33007.71.98545.98545,0,0,0,.27.75,1.03941,1.03941,0,0,0,1.46.06983,18.34855,18.34855,0,0,1,24.8999,0,1.05889,1.05889,0,0,0,1.46-.06983A1.02957,1.02957,0,0,0,30.00113,5.42041Z"/><path class="cls-1" d="M32.131,13.2002a19.30415,19.30415,0,0,0-15.98-8.64991,19.30446,19.30446,0,0,0-15.98,8.64991,1.04331,1.04331,0,0,0,.29,1.43994,1.01364,1.01364,0,0,0,.77.16015,1.03119,1.03119,0,0,0,.66992-.43994,17.21069,17.21069,0,0,1,14.25-7.73,17.21037,17.21037,0,0,1,14.25,7.73,1.04679,1.04679,0,0,0,.8601.46.99455.99455,0,0,0,.57984-.18017,1.00972,1.00972,0,0,0,.44018-.66016A1.02391,1.02391,0,0,0,32.131,13.2002Z"/><path class="cls-1" d="M16.151,13.6499A10.75193,10.75193,0,0,0,5.5712,24.55029c0,5.81006,5.91993,11.84961,6.16993,12.09961a1.05942,1.05942,0,0,0,1.47.01026,1.03073,1.03073,0,0,0,.31005-.73,1.07041,1.07041,0,0,0-.3-.74024C13.16105,35.14014,7.641,29.5,7.641,24.55029A8.67657,8.67657,0,0,1,16.151,15.73a8.67657,8.67657,0,0,1,8.51,8.82031,1.04,1.04,0,0,0,2.08008,0A10.76049,10.76049,0,0,0,16.151,13.6499Z"/><path class="cls-1" d="M17.151,9.14014A14.61806,14.61806,0,0,0,6.0712,13.11035a15.79687,15.79687,0,0,0-1.5,21.25,1.04636,1.04636,0,0,0,.69995.37988.99687.99687,0,0,0,.76-.22021,1.04428,1.04428,0,0,0,.16993-1.46,13.67829,13.67829,0,0,1,1.29-18.42969,12.55726,12.55726,0,0,1,9.52-3.41992c6.76.44971,12.06006,6.52978,12.06006,13.82959v.27a3.37291,3.37291,0,1,1-6.74023,0v-.75977a6.38758,6.38758,0,0,0-1.87988-4.56006,6.0892,6.0892,0,0,0-4.30005-1.79h-.03a5.8317,5.8317,0,0,0-4.33008,1.98974,7.41249,7.41249,0,0,0-1.75,5.64014c.62012,5.85986,7.02,11.13037,9.78027,11.13037a1.03517,1.03517,0,1,0,0-2.07031c-1.55005,0-7.20019-4.39014-7.72021-9.27979a5.25023,5.25023,0,0,1,1.24-4.04,3.6956,3.6956,0,0,1,2.79-1.29,4.0405,4.0405,0,0,1,2.86011,1.18018,4.33682,4.33682,0,0,1,1.26,3.08984v.75977a5.44659,5.44659,0,1,0,10.8899,0v-.27C31.141,16.6499,24.99113,9.66016,17.151,9.14014Z"/><path class="cls-1" d="M24.141,32.61035c-3.10987,0-7.04-4.1499-7.04-8.82031a1.03992,1.03992,0,1,0-2.07984,0c0,5.87012,5.01,10.89014,9.11988,10.89014a1.03493,1.03493,0,1,0,0-2.06983Z"/></g></g></svg>