<svg xmlns="http://www.w3.org/2000/svg" viewBox="0 0 42.05352 37.58984"><defs><style>.cls-1{fill:#39b54a;}</style></defs><title>Asset 71</title><g id="Layer_2" data-name="Layer 2"><g id="Layer_1-2" data-name="Layer 1"><path class="cls-1" d="M15.44663,18.10474a8.75837,8.75837,0,0,0,6.40063-2.652,8.76006,8.76006,0,0,0,2.65206-6.40064,8.75936,8.75936,0,0,0-2.65243-6.40027A8.76038,8.76038,0,0,0,15.44663,0,8.75931,8.75931,0,0,0,9.046,2.65178a8.7589,8.7589,0,0,0-2.652,6.40027A8.75934,8.75934,0,0,0,9.046,15.453a8.76153,8.76153,0,0,0,6.40064,2.65178ZM10.60343,4.20913a6.54393,6.54393,0,0,1,4.8432-2.00652,6.54464,6.54464,0,0,1,4.84319,2.00652A6.54494,6.54494,0,0,1,22.2967,9.05205a6.54453,6.54453,0,0,1-2.00688,4.84319,6.54391,6.54391,0,0,1-4.84319,2.00725,6.54436,6.54436,0,0,1-4.8432-2.00725A6.54289,6.54289,0,0,1,8.59618,9.05205a6.54388,6.54388,0,0,1,2.00725-4.84292Z"/><path class="cls-1" d="M31.33008,29.74023l-2.529,3.34584A2.3613,2.3613,0,0,1,27.99023,34.25a4.50767,4.50767,0,0,1-3.25976,1.12988H6.63037a4.48246,4.48246,0,0,1-3.25-1.12988A4.06634,4.06634,0,0,1,2.21,31.12012c0-.7002.02051-1.39991.07031-2.07032a20.26567,20.26567,0,0,1,.27-2.12988,16.32349,16.32349,0,0,1,.52-2.10986A9.5523,9.5523,0,0,1,3.86035,23,6.47374,6.47374,0,0,1,4.9502,21.57031a4.5543,4.5543,0,0,1,1.41992-.88037,5.27755,5.27755,0,0,1,1.73-.33008c.08008.04.22021.12012.43994.26026.45019.2998.97021.63965,1.55029,1a10.99041,10.99041,0,0,0,2.48975,1.12011,9.89088,9.89088,0,0,0,6.21,0,10.99492,10.99492,0,0,0,2.49023-1.12011c.58985-.37012,1.08985-.7002,1.54981-1,.22021-.14014.36035-.22022.43017-.26026.10987,0,.22022.01026.31983.02l1.37988-2a7.52574,7.52574,0,0,0-1.85986-.21972,2.72249,2.72249,0,0,0-1.48.62011q-.65991.43506-1.52979.98975a8.70007,8.70007,0,0,1-1.98.87012,7.73209,7.73209,0,0,1-4.8501,0A8.79271,8.79271,0,0,1,11.27,19.77q-.85473-.55518-1.52979-.98975A2.7665,2.7665,0,0,0,8.27,18.1499a7.23025,7.23025,0,0,0-2.71.5A6.32336,6.32336,0,0,0,3.43018,19.98a8.50178,8.50178,0,0,0-1.48,1.93018,11.50832,11.50832,0,0,0-.98,2.23,18.96967,18.96967,0,0,0-.58984,2.39013A22.35539,22.35539,0,0,0,.08008,28.8999C.03027,29.62012,0,30.37012,0,31.12012a6.24169,6.24169,0,0,0,1.86035,4.71972,6.64284,6.64284,0,0,0,4.77,1.75h18.1001a6.66757,6.66757,0,0,0,4.77978-1.75,6.2348,6.2348,0,0,0,1.8501-4.71972Q31.36035,30.41479,31.33008,29.74023Z"/><path class="cls-1" d="M39.95942,6.99915a4.93818,4.93818,0,0,0-6.80417,1.26044L21.05645,25.80434l-.3853,7.9202a.85336.85336,0,0,0,1.18392.79923l6.90785-2.85523L41.21625,13.78362a4.93808,4.93808,0,0,0-1.25683-6.78447ZM27.57568,29.96488l-4.84538,2.0186.15507-5.24422,9.18455-13.31873,4.6916,3.23532ZM39.522,12.64127l-1.60393,2.33806L33.226,11.74411l1.61393-2.3404a2.84276,2.84276,0,0,1,1.83217-1.14978l.01008-.00186a2.84277,2.84277,0,0,1,2.1212.4235,2.87311,2.87311,0,0,1,.71863,3.9657Z"/></g></g></svg>