<svg xmlns="http://www.w3.org/2000/svg" viewBox="0 0 37.86035 37.8501"><defs><style>.cls-1{fill:#9e005d;}</style></defs><title>Asset 67</title><g id="Layer_2" data-name="Layer 2"><g id="Layer_1-2" data-name="Layer 1"><path class="cls-1" d="M29.34033,20.02l.02-.23h2.27979l.06006.16992a3.16992,3.16992,0,1,0,0-2.08008l-.06006.17041H29.36035l-.02-.23a10.431,10.431,0,0,0-2.25-5.44043l-.14013-.17968,4.81005-4.82032.16993.1001a3.99218,3.99218,0,1,0-2.04981-3.48975,3.89953,3.89953,0,0,0,.53955,2l.1001.16993L25.71,10.96,25.54,10.82031A10.37745,10.37745,0,0,0,20.04,8.52l-.21973-.02V6.22021l.16992-.06a3.16993,3.16993,0,1,0-2.08007,0l.16015.06v2.27L17.8501,8.52a10.42411,10.42411,0,0,0-5.54,2.30029l-.16992.1499L7.34033,6.16992,7.44043,6a4.03834,4.03834,0,0,0,.54-2.00977A3.99024,3.99024,0,1,0,3.99023,7.98a3.9079,3.9079,0,0,0,1.92969-.5l.17041-.08984L10.91016,12.21l-.14014.16992a10.435,10.435,0,0,0-2.25,5.44043l-.02.23H6.22021l-.06-.17041a3.17041,3.17041,0,1,0,0,2.08008l.06-.16992H8.5l.02.23A10.41471,10.41471,0,0,0,10.76025,25.46l.14014.18018L6.08008,30.46l-.16016-.08984a3.9364,3.9364,0,0,0-1.92969-.5,3.993,3.993,0,1,0,3.44,1.97021l-.08985-.16015,4.79-4.8003.17969.14014a10.34526,10.34526,0,0,0,5.54,2.32031l.22021.02v2.26953l-.16015.06055a3.16993,3.16993,0,1,0,2.08007,0l-.16992-.06055V29.36035l.21973-.03027a10.37681,10.37681,0,0,0,5.5-2.29981l.18017-.14013L30.52,31.69043l-.1001.15967a3.99235,3.99235,0,1,0,3.4502-1.98,4.09011,4.09011,0,0,0-1.93994.5L31.77,30.46,26.9502,25.64014l.14013-.16993A10.46055,10.46055,0,0,0,29.34033,20.02Zm5.3501-2.52A1.42017,1.42017,0,1,1,33.27,18.91992,1.42562,1.42562,0,0,1,34.69043,17.5ZM33.87012,1.75a2.24,2.24,0,1,1-2.25,2.24023A2.243,2.243,0,0,1,33.87012,1.75ZM3.99023,6.23a2.24,2.24,0,1,1,2.25-2.23975A2.24287,2.24287,0,0,1,3.99023,6.23ZM3.16992,20.34033a1.42017,1.42017,0,1,1,1.42041-1.42041A1.42571,1.42571,0,0,1,3.16992,20.34033ZM3.99023,36.1001a2.24,2.24,0,1,1,2.25-2.23975A2.24287,2.24287,0,0,1,3.99023,36.1001Zm29.87989-4.48a2.24,2.24,0,1,1-2.25,2.24023A2.243,2.243,0,0,1,33.87012,31.62012ZM21.36035,10.55029A8.81694,8.81694,0,0,1,26.54,14.68018l.21.37988H22.65039l-.05029-.19971a14.74407,14.74407,0,0,0-1.52-3.94043l-.31006-.54Zm-.04,8.42969a16.54852,16.54852,0,0,1-.1001,1.8501l-.02.22021h-4.54l-.02-.22021A16.41781,16.41781,0,0,1,16.54,18.98a16.08106,16.08106,0,0,1,.11035-1.96l.01953-.21973h4.52051L21.21,17.02A15.86318,15.86318,0,0,1,21.32031,18.98Zm-3.79-15.81006A1.41993,1.41993,0,1,1,18.9502,4.59033,1.419,1.419,0,0,1,17.53027,3.16992Zm1.18994,7.94043.21-.31006.21.31006A11.80353,11.80353,0,0,1,20.77,14.74023l.09033.31983H17l.09033-.31983A11.91443,11.91443,0,0,1,18.72021,11.11035Zm-7.3999,3.56983A8.817,8.817,0,0,1,16.5,10.55029l.59033-.17041-.31006.54a14.74407,14.74407,0,0,0-1.52,3.94043l-.05029.19971H11.11035Zm-.8501,6.37011-.04-.20019A8.26082,8.26082,0,0,1,10.21,18.93018,8.34786,8.34786,0,0,1,10.43018,17l.04-.19971h4.43995l-.02.27979A17.31535,17.31535,0,0,0,14.79,18.98a17.71015,17.71015,0,0,0,.09033,1.79l.02.28027Zm5.94971,6.23a8.83491,8.83491,0,0,1-5.09961-4.11035l-.21-.36963h4.08008l.04.18994A14.67688,14.67688,0,0,0,16.71,26.91016l.30029.54Zm3.9502,7.39991a1.41993,1.41993,0,1,1-1.41992-1.41993A1.4187,1.4187,0,0,1,20.37012,34.68018Zm-1.23-7.81983-.21.29981-.21-.29981a11.98968,11.98968,0,0,1-1.66015-3.75l-.08985-.31006h3.91993l-.08985.31006A11.98945,11.98945,0,0,1,19.14014,26.86035ZM26.54,23.16992a8.83487,8.83487,0,0,1-5.09961,4.11035l-.59033.16993.30029-.54a15.03386,15.03386,0,0,0,1.48-3.91993l.03955-.18994H26.75ZM22.96,21.05029l.03027-.28027c.04981-.58984.08008-1.19971.08008-1.79a17.06366,17.06366,0,0,0-.1001-1.8999l-.02-.27979h4.43994l.04.19971a8.3484,8.3484,0,0,1,.22021,1.93018,8.26135,8.26135,0,0,1-.22021,1.91992l-.04.20019Z"/></g></g></svg>