<svg xmlns="http://www.w3.org/2000/svg" viewBox="0 0 27.06006 39.10986"><defs><style>.cls-1{fill:#f15a24;}</style></defs><title>Asset 69</title><g id="Layer_2" data-name="Layer 2"><g id="Layer_1-2" data-name="Layer 1"><path class="cls-1" d="M23.47021,0H3.59033A3.59332,3.59332,0,0,0,0,3.58984V35.52a3.59332,3.59332,0,0,0,3.59033,3.58984H23.47021A3.59322,3.59322,0,0,0,27.06006,35.52V3.58984A3.59322,3.59322,0,0,0,23.47021,0Zm0,37.04H3.59033a1.51751,1.51751,0,0,1-1.51025-1.52V31.1499H24.99023V35.52A1.51956,1.51956,0,0,1,23.47021,37.04Zm1.52-29.54981V29.06982H2.08008V7.49023ZM3.59033,2.08008H23.47021a1.51709,1.51709,0,0,1,1.52,1.50976V5.41016H2.08008V3.58984A1.515,1.515,0,0,1,3.59033,2.08008Z"/><path class="cls-1" d="M13.53027,31.78027a2.315,2.315,0,1,0,2.31983,2.30957A2.31709,2.31709,0,0,0,13.53027,31.78027Zm0,1.66993a.63989.63989,0,1,1-.64013.63964A.63817.63817,0,0,1,13.53027,33.4502Z"/><path class="cls-1" d="M12.89014,4.78027h1.28027a1.03516,1.03516,0,1,0,0-2.07031H12.89014a1.03517,1.03517,0,1,0,0,2.07031Z"/></g></g></svg>