<svg xmlns="http://www.w3.org/2000/svg" viewBox="0 0 31.3572 37.58514"><defs><style>.cls-1{fill:#39b54a;}</style></defs><title>Asset 72</title><g id="Layer_2" data-name="Layer 2"><g id="Layer_1-2" data-name="Layer 1"><path class="cls-1" d="M15.44149,18.10474a8.75841,8.75841,0,0,0,6.40064-2.652,8.76009,8.76009,0,0,0,2.652-6.40064,8.75935,8.75935,0,0,0-2.65242-6.40027A8.76042,8.76042,0,0,0,15.44149,0,8.75931,8.75931,0,0,0,9.04085,2.65178,8.7589,8.7589,0,0,0,6.3888,9.05205,8.75934,8.75934,0,0,0,9.04085,15.453a8.76156,8.76156,0,0,0,6.40064,2.65178ZM10.5983,4.20913a6.54391,6.54391,0,0,1,4.84319-2.00652,6.54461,6.54461,0,0,1,4.84319,2.00652,6.545,6.545,0,0,1,2.00689,4.84292,6.54454,6.54454,0,0,1-2.00689,4.84319,6.54388,6.54388,0,0,1-4.84319,2.00725,6.54432,6.54432,0,0,1-4.84319-2.00725A6.5429,6.5429,0,0,1,8.591,9.05205,6.54389,6.54389,0,0,1,10.5983,4.20913Z"/><path class="cls-1" d="M31.28122,28.90087a22.37271,22.37271,0,0,0-.30465-2.37466,18.68952,18.68952,0,0,0-.584-2.38788,11.81314,11.81314,0,0,0-.98211-2.227,8.3848,8.3848,0,0,0-1.47963-1.92871,6.52626,6.52626,0,0,0-2.12626-1.33594,7.34682,7.34682,0,0,0-2.71445-.49137,2.75422,2.75422,0,0,0-1.47138.624c-.4409.28748-.95705.62011-1.53267.98825a8.78086,8.78086,0,0,1-1.98321.87356,7.69846,7.69846,0,0,1-4.85108,0A8.75039,8.75039,0,0,1,11.27,19.76789c-.57029-.36456-1.08644-.69719-1.53414-.9889a2.75518,2.75518,0,0,0-1.47064-.62406,7.33939,7.33939,0,0,0-2.71408.49174A6.51956,6.51956,0,0,0,3.42449,19.983a8.39873,8.39873,0,0,0-1.47963,1.92834A11.81639,11.81639,0,0,0,.96348,24.1387a18.67007,18.67007,0,0,0-.584,2.38751A22.20048,22.20048,0,0,0,.07488,28.902C.02505,29.61954,0,30.36655,0,31.12137a6.24144,6.24144,0,0,0,1.85346,4.72171,6.67305,6.67305,0,0,0,4.77621,1.74206H24.72716a6.67426,6.67426,0,0,0,4.77621-1.74206A6.23929,6.23929,0,0,0,31.3572,31.121c-.00037-.7573-.02579-1.50432-.076-2.22014Zm-3.29658,5.3465a4.49246,4.49246,0,0,1-3.25785,1.13516H6.62967a4.491,4.491,0,0,1-3.25748-1.13516,4.07494,4.07494,0,0,1-1.16995-3.126c0-.70425.02322-1.39971.06983-2.06708a20.00744,20.00744,0,0,1,.27528-2.13911A16.50635,16.50635,0,0,1,3.061,24.81039a9.6051,9.6051,0,0,1,.79859-1.8108,6.21963,6.21963,0,0,1,1.0879-1.42549,4.32158,4.32158,0,0,1,1.41439-.87962A5.064,5.064,0,0,1,8.09636,20.36c.07745.04083.21472.119.43733.26418.45266.295.97459.632,1.5513,1.00037a10.93283,10.93283,0,0,0,2.48936,1.11222,9.902,9.902,0,0,0,6.20629.00037,10.93415,10.93415,0,0,0,2.49046-1.11333c.59075-.37741,1.09791-.70426,1.55057-.99963.22261-.1448.35988-.22335.437-.26418a5.06654,5.06654,0,0,1,1.73519.33446,4.33538,4.33538,0,0,1,1.41439.87962,6.205,6.205,0,0,1,1.08754,1.42549A9.59863,9.59863,0,0,1,28.29507,24.81a16.51117,16.51117,0,0,1,.51367,2.10516,20.109,20.109,0,0,1,.27528,2.13911V29.055c.04689.66489.0702,1.35989.07057,2.06634a4.0761,4.0761,0,0,1-1.16995,3.126Z"/></g></g></svg>