<svg xmlns="http://www.w3.org/2000/svg" viewBox="0 0 37.45964 37.46497"><defs><style>.cls-1{fill:#666;}</style></defs><title>Asset 68</title><g id="Layer_2" data-name="Layer 2"><g id="Layer_1-2" data-name="Layer 1"><path class="cls-1" d="M36.21087,17.4828a1.24877,1.24877,0,0,0-1.24877,1.24877v.201A16.04055,16.04055,0,0,1,21.10256,34.8177,16.24849,16.24849,0,1,1,31.00359,8.117H25.59631a1.24877,1.24877,0,0,0-1.24877,1.24877h0a1.24877,1.24877,0,0,0,1.24877,1.24877h8.164A1.20175,1.20175,0,0,0,34.9621,9.41282v-8.164A1.24877,1.24877,0,0,0,33.71333,0h0a1.24877,1.24877,0,0,0-1.24877,1.24877V6.00763A18.72686,18.72686,0,1,0,25.09582,36.356,18.95917,18.95917,0,0,0,37.45964,18.40525h0a.92244.92244,0,0,0-.92244-.92244Z"/></g></g></svg>