<svg xmlns="http://www.w3.org/2000/svg" viewBox="0 0 43.64878 37.72842"><defs><style>.cls-1{fill:#444a93;}</style></defs><title>Asset 66</title><g id="Layer_2" data-name="Layer 2"><g id="Layer_1-2" data-name="Layer 1"><path class="cls-1" d="M21.7549,37.72842a1.78644,1.78644,0,0,1-.94689-.27282L.93078,25.09476a1.11818,1.11818,0,0,1-.36207-1.51013,1.04963,1.04963,0,0,1,1.46536-.37342L21.7549,35.4744,42.02927,22.86783a1.04934,1.04934,0,0,1,1.46537.37341,1.11811,1.11811,0,0,1-.36208,1.51013L22.6999,37.45609A1.78279,1.78279,0,0,1,21.7549,37.72842Zm0-4.50183a1.78644,1.78644,0,0,1-.94689-.27282L.93078,20.59293a1.11819,1.11819,0,0,1-.36207-1.51014,1.04953,1.04953,0,0,1,1.46536-.37341L21.7549,30.97256,42.02927,18.36588a1.04923,1.04923,0,0,1,1.46537.37341,1.11811,1.11811,0,0,1-.36208,1.51013L22.6999,32.95425A1.78271,1.78271,0,0,1,21.7549,33.22659Zm0-4.50183a1.78636,1.78636,0,0,1-.94689-.27283L.93078,16.0911a2.06925,2.06925,0,0,1,0-3.45582L20.809.27237a1.77779,1.77779,0,0,1,1.89189.00037L42.58,12.63528a2.06936,2.06936,0,0,1,0,3.45594L22.6999,28.45242A1.78271,1.78271,0,0,1,21.7549,28.72476ZM2.2843,14.36319,21.7549,26.47073,41.22645,14.36319,21.7549,2.25406Zm-.80187-.786h0Z"/></g></g></svg>