<svg width="1366" height="650" xmlns="http://www.w3.org/2000/svg" xmlns:xlink="http://www.w3.org/1999/xlink">
 <style type="text/css">.st0{fill:#E9AB2E;}
	.st1{opacity:0.5;}
	.st2{opacity:0.1;clip-path:url(#XMLID_268_);}
	.st3{fill-rule:evenodd;clip-rule:evenodd;fill:#4E3C33;}
	.st4{fill:#4E3C33;}
	.st5{fill:#D35400;}
	.st6{clip-path:url(#XMLID_269_);}
	.st7{clip-path:url(#XMLID_270_);}</style>
 <g>
  <title>background</title>
  <rect fill="none" id="canvas_background" height="602" width="802" y="-1" x="-1"/>
 </g>
 <g>
  <title>Layer 1</title>
  <g class="st1" id="XMLID_67_">
   <defs>
    <rect height="646.6" width="906" class="st1" y="3" x="246" id="XMLID_66_"/>
   </defs>
   <clipPath id="XMLID_268_">
    <use id="svg_1" xlink:href="#XMLID_66_"/>
   </clipPath>
   <g class="st2" id="Shape_1_copy_1_">
    <g id="XMLID_389_">
     <path d="m752.2,677c5.8,-19.9 9.8,-40.6 12.8,-61.1c3.3,-22.7 5.8,-45.8 6.5,-68.7c0.6,-22.2 -0.9,-44.5 -2.7,-66.7c-1.5,-18.2 -3.9,-36.4 -7.7,-54.3c-6.1,-29.1 -32.6,-51.2 -63.4,-50.7c-18.4,0.3 -33.9,6.9 -46.5,20.3c-17.2,18.4 -21.2,40.1 -15.3,64c4.8,19.5 6.2,39.3 6.9,59.2c0.5,15.2 0.2,30.5 -1.2,45.6c-1.6,17.8 -4.6,35.6 -7.2,53.3c-0.9,6.3 1.8,12.9 7,14.6c6.9,2.2 13.3,-0.4 15.3,-7.4c2.4,-8.6 3.9,-17.5 5.1,-26.3c2,-15.4 4.3,-30.8 4.8,-46.2c0.6,-17.8 0,-35.7 -1.2,-53.5c-0.9,-14 -3.6,-27.8 -5.5,-41.7c-0.8,-5.8 -3.1,-11.6 -2.8,-17.3c1,-18.8 9.3,-32.6 29,-39.2c17.8,-5.9 38,1.5 47.1,18.9c3.2,6.1 4.8,13.4 6,20.3c2.7,15.9 5.3,31.8 6.9,47.9c1.5,15 1.6,30.1 2.5,48.9c-1,14.6 -1.8,32.9 -3.7,51.1c-1.5,15.4 -3.4,30.9 -6.6,46c-3.8,18 -9.1,35.6 -13.9,53.4c-5.4,20.1 -13.3,39.2 -21.8,58.1c-16.8,37.4 -38,72.1 -63,104.5c-4.2,5.5 -3.5,12.5 1.5,16.5c5.3,4.2 12.8,3.7 16.8,-2.1c14.1,-20.4 28.7,-40.6 41.4,-61.9c10.7,-18 20,-36.9 28.1,-56.3c9.5,-22.6 18,-45.8 24.8,-69.2zm168.5,-33c2.1,-14.5 4.4,-29.1 5.6,-43.7c1.8,-22 2.6,-44.1 3.9,-66c-1.2,-21.5 -1.6,-42.8 -3.8,-63.9c-2.5,-23.7 -5.9,-47.3 -10.4,-70.6c-3,-15.6 -7.6,-31 -13.5,-45.8c-9.7,-24.3 -24.5,-45.6 -42.2,-65c-16.2,-17.7 -35,-32.1 -55.9,-43.6c-26.4,-14.6 -54.4,-23.7 -84.6,-26.4c-20,-1.8 -39.8,-1.3 -59.6,2c-21.2,3.6 -41.4,10.2 -60.5,19.7c-27.9,13.8 -51.7,33.1 -71.7,57c-23.1,27.7 -38.5,59.1 -46.5,94.4c-4.7,20.9 -6.8,42.1 -4.9,63.4c1.3,14.6 5.3,28.9 6.7,43.5c1.5,16.1 1.4,32.4 1.8,48.6c0.1,5.2 -0.7,10.5 -0.4,15.7c0.3,6 5.9,10.3 12.2,10.1c5.4,-0.2 10.6,-5.1 10.8,-10.6c0.5,-14.4 1.3,-28.8 1.2,-43.2c0,-8.3 -1.2,-16.6 -2.4,-24.9c-1.9,-12.9 -5.1,-25.7 -6,-38.6c-0.9,-13.1 0,-26.4 1,-39.6c1.7,-21.5 8.3,-41.6 17.4,-61.2c11.1,-23.9 26.3,-44.8 45.7,-62.2c34,-30.6 73.9,-47.9 119.8,-50.9c26.4,-1.7 52.2,1.2 77.2,9.7c24.7,8.5 47,21.1 66.6,38.4c36,31.7 57.8,71.5 65.6,118.8c3,18.2 5.8,36.4 7.7,54.8c2,19 3.5,38.1 3.9,57.2c0.4,18.1 -0.1,36.3 -1.5,54.3c-1.7,22 -4.6,43.9 -7,65.8c-0.6,5.2 0.4,9.8 4.9,13c7.8,5.3 17.4,0.2 18.9,-10.2zm43,-350c12.2,22.4 21.9,45.7 27.6,70.4c4.1,17.9 7.1,36.1 10.3,54.2c1.3,7.2 6.9,12.1 14,11.3c6.2,-0.6 11.2,-6.9 9.9,-13.4c-4,-20.8 -7.9,-41.6 -12.5,-62.3c-5.1,-22.6 -14.1,-43.9 -24.6,-64.4c-13.8,-26.8 -31.3,-51.1 -51.9,-73.1c-18.5,-19.9 -39.2,-37.2 -62,-51.9c-22.6,-14.5 -46.4,-26.7 -72.1,-34.6c-17.8,-5.4 -36,-10.4 -54.3,-13.7c-16.5,-2.9 -33.4,-3.3 -47.9,-4.6c-13.9,1 -25.4,1 -36.6,2.8c-18.8,2.9 -37.6,6 -56,10.7c-19.8,5.1 -38.7,13.1 -57.1,22.4c-27.4,13.9 -52.4,31.3 -74.8,52.4c-16.9,15.8 -32,33.1 -45.3,52.1c-16.5,23.5 -30,48.7 -39.4,75.7c-6.1,17.6 -10.1,36 -14.9,54.1c-1.6,6 1.3,11.9 6.5,14.3c5.8,2.6 11.7,1.2 14.8,-4.2c2.3,-4.1 2.7,-9.3 3.9,-14c3.4,-12.7 6,-25.7 10.4,-38.1c4.6,-13 10.3,-25.6 16.3,-38c14,-29 33.1,-54.4 55.8,-77.2c17.6,-17.7 37.1,-33 58.7,-45.7c22.6,-13.4 46.3,-24.2 71.6,-30.9c17.4,-4.6 35.4,-7.5 53.2,-9.9c16.1,-2.2 32.3,-3.4 48.8,-1.6c21.1,2.3 41.9,4.9 62.5,10.5c21.9,6 42.7,14.5 62.6,25.1c24.1,12.8 46,28.7 65.7,47.5c22.7,21.9 41.7,46.4 56.8,74.1zm-613.1,220.5c-2.3,-18.1 -5.9,-36.1 -7.5,-54.2c-1.8,-20.9 -1.2,-41.9 2,-62.7c2.1,-13.4 3.4,-27 6.9,-40c4.8,-17.8 10.6,-35.5 17.2,-52.8c9.2,-24.4 22.1,-46.9 37,-68.3c16.1,-23.1 34,-44.7 55.7,-62.6c16,-13.3 32.5,-26 49.9,-37.4c19.8,-12.9 41.2,-23.5 63.9,-30.6c18.6,-5.8 37.2,-11.4 56.2,-15.5c15.4,-3.3 31.3,-5 47,-5.9c21.6,-1.2 43.2,-0.6 64.7,2.5c7.5,1.1 14.2,-3 15.1,-9.5c0.9,-7.3 -4.1,-13.7 -11.9,-14.4c-16,-1.4 -31.9,-2.6 -46.7,-3.7c-11.4,0.8 -21.5,1.2 -31.6,2.2c-13.1,1.3 -26.4,2.2 -39.3,4.9c-17.6,3.8 -35,8.6 -52.2,13.9c-28.6,8.8 -55.3,22 -80.7,38c-30.1,18.9 -56.9,41.6 -80.6,68.1c-14.1,15.8 -27.2,32.3 -37.8,50.6c-8.9,15.3 -18,30.6 -25.5,46.6c-11.1,23.7 -19.7,48.5 -24.7,74.4c-2.9,15.4 -6.1,30.8 -7.5,46.3c-2.3,26.6 -2.2,53.4 1,80c1.2,10 2.4,20.2 4.8,30c3.8,15.1 2.5,29.9 -1.3,44.5c-3.8,14.4 -11.2,26.9 -21,38.1c-5.1,5.8 -4.6,13 1.1,17.7c5.4,4.4 11.9,3.1 17.1,-2.9c13.5,-15.5 22.6,-33.2 27.2,-53.3c3.5,-14.7 3.4,-29.4 1.5,-44zm731.2,-69.3c-1.1,-13.5 -2.6,-27 -4.8,-40.4c-3.1,-18.4 -7,-36.8 -10.9,-55.1c-4.8,-22.2 -12.2,-43.6 -21.7,-64.1c-14.7,-31.5 -31.2,-62.1 -55.7,-87.5c-5.9,-6.1 -10.4,-13.6 -16.2,-19.7c-8.6,-8.9 -17.6,-17.2 -26.8,-25.5c-21.3,-19.3 -45.2,-35 -70.4,-48.5c-19.3,-10.4 -39.5,-18.6 -60.3,-25.7c-8.1,-2.8 -13.9,1.6 -16.6,7.6c-2.4,5.3 1.8,11.9 8.3,14.4c13.1,5 26.5,9.7 39.3,15.5c30.7,13.8 58.8,32 84.2,54.1c20.2,17.6 38.3,37.2 54.2,58.9c17.6,24 32,49.7 43.1,77.1c10.2,25.1 17.5,51.1 21.5,77.9c3.4,22.6 7.4,45.1 9.8,67.7c2.3,21.1 3.7,42.4 3.9,63.6c0.2,25.9 -1.2,51.7 -2.1,77.6c-0.2,5.7 -0.8,11.4 -1.3,17.1c-0.8,9 -1.9,17.9 -2.4,26.9c-0.5,8.4 5.8,11.7 11.3,12.3c5,0.6 11.5,-5.2 12,-10.4c1.9,-19.4 4.2,-38.7 5.2,-58.1c0.9,-15.7 0.2,-31.5 0.2,-47.2c0.7,0 1.5,-0.1 2.2,-0.1c-1.8,-29.4 -3.6,-58.9 -6,-88.4zm-537.2,192.3c4.9,-16.6 10,-33.4 12.7,-50.5c2.9,-17.9 3.5,-36.1 4.2,-54.2c0.7,-20 -1.5,-39.8 -5.1,-59.5c-2,-10.9 -3.5,-21.9 -5.3,-32.8c1,-15.3 3.4,-30.1 8,-44.5c5.2,-16.7 13.3,-32 24.1,-45.9c12.9,-16.6 28.6,-29.8 47.1,-39.5c24.8,-13 51.4,-18.1 79.4,-16.4c2.7,0.2 6.1,-1.2 8.3,-2.9c3.9,-3 5,-7.5 3.5,-12.2c-1.9,-5.9 -6.6,-8.6 -12.4,-8.6c-9,-0.1 -18,0.3 -26.9,0.9c-17.3,1.2 -33.9,5.7 -49.9,12.4c-35.6,15.1 -62.8,39.8 -81.9,73.1c-12.9,22.6 -20.6,47.2 -21.4,73.4c-0.3,11.6 0.3,23.2 1.6,34.8c1.8,16.5 5.5,32.9 6.8,49.4c1.5,18.4 1.6,37 -1.8,55.3c-3.2,17.1 -5.8,34.5 -10.4,51.2c-7.2,26.4 -19,51.1 -33.5,74.3c-16,25.6 -35.5,48.2 -58.2,68c-5.5,4.8 -6.1,10.8 -1.7,16.4c4.1,5.1 11.1,5.9 16.4,1.5c4.7,-3.9 9.1,-8.3 13.6,-12.5c23.2,-21.8 42,-47 57.7,-74.5c10.4,-18 19.2,-36.8 25.1,-56.7zm318.4,27.7c3.5,-15.6 5.6,-31.4 7.9,-47.2c1.2,-8.2 1.5,-16.5 2.4,-24.8c0.9,-8.4 2.4,-16.8 2.8,-25.2c0.5,-11.5 0.1,-23 0.1,-34.4c0.5,0 1,0 1.5,-0.1c-1.4,-22.2 -2.4,-44.5 -4.3,-66.6c-1.1,-13 -3.4,-25.9 -5.5,-38.7c-1.9,-11.2 -3.4,-22.6 -6.5,-33.6c-6.5,-22.6 -16.9,-43.5 -32,-61.7c-13.7,-16.4 -29.6,-30.2 -48.2,-40.7c-6.5,-3.6 -13.3,-1.6 -16.7,4.6c-3.3,6 -1.2,12.4 5.3,16.2c3.5,2.1 7,4.1 10.4,6.4c32.1,22 52.3,52.2 60.5,90c4.1,18.9 6.9,38.2 8.9,57.5c2.2,21.1 3.3,42.4 3.8,63.6c0.4,15.2 -0.8,30.4 -1.8,45.6c-0.9,14 -2,28.1 -3.9,42c-2.1,14.8 -4.8,29.6 -8.1,44.2c-3.9,17.5 -8.1,34.9 -13.2,52c-4.7,15.6 -10.1,31 -16.4,45.9c-9,21.4 -18.9,42.4 -28.7,63.4c-3.8,8.1 -8.7,15.6 -12.8,23.5c-3.1,6 -1.1,12.6 4.4,15.7c5.4,3 12.4,1.6 15.5,-3.8c7.2,-12.7 14.4,-25.5 20.8,-38.6c7.7,-15.8 14.8,-31.8 21.5,-48c6,-14.7 11.9,-29.6 16.4,-44.8c5.9,-20.6 11.2,-41.4 15.9,-62.4zm-510.6,-463.4c5.2,4.2 12.4,2.6 16.6,-3.2c2.5,-3.4 4.9,-6.9 7.5,-10.2c16.1,-20.2 33.3,-39.3 53,-55.9c10.8,-9.1 21.6,-18.3 33.4,-26c16.6,-11 33.7,-21.5 51.3,-30.9c13.5,-7.3 27.7,-13.6 42.3,-18.6c18.2,-6.3 36.9,-11.4 55.7,-15.7c15.8,-3.7 32,-6.6 48.2,-7.8c19,-1.5 38.2,-1.6 57.2,-1c15.8,0.5 31.6,2.5 47.2,4.7c11.5,1.6 23,4.2 34.3,7.3c14.9,4.1 29.7,8.6 44.1,13.8c12,4.4 23.4,10.2 35.2,15.3c7.5,3.2 16.2,-2.8 16.2,-10.9c0.1,-5.6 -3.2,-9.1 -7.8,-11.3c-7.6,-3.6 -15.2,-7.3 -23,-10.3c-14.8,-5.7 -29.6,-11.9 -44.8,-16c-19.1,-5.2 -38.6,-9.2 -58.1,-12.4c-16.2,-2.7 -32.7,-4.1 -49.1,-4.9c-23.4,-1.2 -46.8,0.4 -69.9,4c-19.4,3 -38.9,6.5 -57.7,11.9c-21.4,6.2 -42.8,13.4 -63.1,22.5c-19.6,8.8 -38.3,19.7 -56.5,31.1c-32.7,20.4 -62.1,44.8 -86.8,74.6c-9.1,11 -18.5,21.9 -27.5,33c-5.7,6.4 -2.9,12.9 2.1,16.9zm620.1,216.9c-2.9,-18.2 -6,-36.4 -10.7,-54.1c-5.2,-19.6 -12.9,-38.6 -23.1,-56.2c-6.1,-10.5 -12.8,-20.8 -20,-30.5c-1.9,-2.6 -7.4,-4.7 -10.5,-3.9c-8.6,2 -13,10.7 -7.3,18.5c4.9,6.9 9.9,13.8 13.7,21.3c6.8,13.4 13.9,26.8 18.8,41c5.4,15.6 8.9,31.9 12.3,48.1c3.1,14.5 5.2,29.2 7.1,43.9c1.7,12.9 3.4,26 3.7,39c0.7,29.7 1.1,59.4 0.3,89.1c-0.5,17.9 -3.1,35.8 -5.2,53.6c-1.8,14.6 -3.7,29.2 -6.7,43.5c-4,19.3 -8.5,38.5 -14,57.4c-6,20.7 -13.3,41.1 -20.2,61.6c-1.7,5.2 -0.6,10.5 3.7,14.1c3.4,2.8 7.1,3.4 10.8,1.1c4.6,-2.8 8,-6.7 9.7,-11.9c2.7,-8 5.8,-15.9 8.2,-24c6.5,-21.8 13.3,-43.6 18.8,-65.6c4.1,-16.4 7.1,-33.2 9.7,-49.9c3.1,-20.3 6,-40.7 7.8,-61.2c1.7,-19.7 1.8,-39.6 2.6,-59.6c-0.8,-19.7 -1,-39.5 -2.6,-59.3c-1.4,-18.9 -3.9,-37.5 -6.9,-56zm-568.1,258.1c16.2,-18.2 28.5,-39.1 37,-62c4.1,-11.1 7.5,-22.5 10.2,-34c2.3,-10.1 3.6,-20.6 4.5,-30.9c0.8,-9.7 1.5,-19.7 0.6,-29.4c-1.4,-14.6 -4.5,-29 -6.5,-43.5c-2.5,-18.5 -4.5,-37.1 -1.8,-55.7c2.3,-15.8 4.2,-31.7 7.9,-47.2c3,-12.4 8.2,-24.2 12.9,-36.1c7.2,-18.1 17.6,-34.4 29.3,-50c12.1,-16.1 26.1,-30.3 41.6,-43.1c5.4,-4.4 5.9,-11.6 1.7,-16.6c-4.3,-5.1 -11,-5.7 -16.5,-1.4c-22.9,18.1 -42,39.7 -57.8,64.2c-15.3,23.7 -26.7,49.4 -34.2,76.7c-5.6,20.4 -8.6,41.2 -9.6,62.2c-0.5,11.1 0.3,22.2 1,33.3c0.4,6.3 1.5,12.6 2.3,19c2.1,15.2 5.2,30.3 6.1,45.5c1.1,19.4 -1.7,38.7 -6.7,57.6c-6,22.6 -15.7,43.3 -29,62.4c-10.7,15.4 -23.6,28.9 -38.1,40.8c-4.2,3.4 -5.6,8.7 -4,13.2c1.6,4.3 6.3,7.7 12.4,7.7c1.1,-0.5 4,-0.9 5.8,-2.5c10.5,-9.9 21.4,-19.4 30.9,-30.2zm298.9,-18.4c6.2,-23.2 10.7,-46.7 13.4,-70.5c2,-17.5 2.5,-35.2 3.7,-55.1c-1.5,-18.4 -2.7,-39 -4.8,-59.5c-1.2,-11.8 -3.6,-23.5 -5.8,-35.2c-1.3,-7 -8.1,-11.6 -13.9,-10.1c-6.5,1.7 -10.5,8.8 -9.5,15.1c2.8,16.9 6.2,33.7 7.5,50.7c1.5,18.9 1.1,37.9 1.2,56.8c0.1,24.4 -3.1,48.6 -8,72.5c-2.8,13.8 -6.2,27.6 -10.4,41.1c-4.8,15.8 -10,31.6 -16.4,46.9c-6.4,15.3 -14.1,30 -21.7,44.7c-11.6,22.2 -25.7,42.9 -41.3,62.5c-5.6,7 -11.5,13.7 -16.9,20.8c-3.6,4.8 -3.3,10.6 0.3,14.4c4,4.3 10,5.9 14.4,2.8c3.6,-2.6 6.7,-6.1 9.6,-9.6c25.5,-30.4 47.4,-63.2 64.9,-98.7c14.2,-28.7 25.5,-58.6 33.7,-89.6zm422.8,-272.7c-1.9,-14.8 -4.3,-29.7 -7.8,-44.2c-3.8,-15.7 -8.6,-31.3 -14.1,-46.6c-5.6,-15.5 -12.2,-30.8 -19.1,-45.8c-9.2,-19.9 -20.2,-38.9 -33.4,-56.5c-11.9,-15.9 -23.7,-32 -36.9,-46.7c-11.5,-12.7 -24.6,-24.1 -37.6,-35.3c-10.2,-8.8 -21.3,-16.5 -32.1,-24.6c-6.7,-5 -12.9,-0.6 -16.6,4.6c-2.8,4 -0.6,11.8 4,15.2c3.6,2.7 7.6,5 11,8c17.3,14.6 35,28.9 51.5,44.4c8.6,8.1 15.5,18 22.5,27.7c11,15.4 21.8,31 32,47c11.8,18.5 20.8,38.4 28.7,58.8c7.7,20 14.3,40.4 18.1,61.6c3,16.3 6.2,32.7 8,49.2c1.6,14.9 1.5,30.1 2,45.1c0.2,6.7 4.3,11.9 10.4,12.9c4.9,0.8 10.8,-2.9 12.3,-9c1.3,-5.1 1.1,-10.6 1.7,-17.7c-1.3,-14.9 -2.4,-31.6 -4.6,-48.1zm-306,76.5c-1.2,-10.8 -3.8,-21.5 -5.2,-32.4c-2.4,-18.4 -7.7,-35.8 -17.6,-51.7c-19.5,-31.2 -48,-49.1 -83.9,-54.5c-26.1,-4 -51.1,1.5 -73.9,14.8c-26.7,15.5 -44.2,38.8 -53.8,68.1c-1.3,4.1 -2.6,8.6 -2.4,12.8c0.4,6.2 5.5,10.4 11.3,10.9c5.1,0.4 9.8,-3.5 12,-9.5c3.3,-9 5.9,-18.3 10.3,-26.7c17.2,-32.5 51.4,-49 85.1,-47.7c20,0.8 38.1,7.6 53.9,20.1c16.5,13 27.6,29.6 32.4,49.9c3.6,15.5 6.3,31.4 7.9,47.2c2.2,22.4 3.2,45 4.5,67.5c0.4,7.3 4.7,12.5 11.2,12.9c6.1,0.4 12.5,-5.1 12.2,-12.3c-0.3,-6.7 -0.1,-13.4 -0.1,-23.3c-1,-13.1 -2.1,-29.6 -3.9,-46.1zm-231.7,209c8.9,-23.3 15.6,-47.2 20.1,-71.8c3.9,-21.6 6,-43.4 6.8,-65.4c-1.4,-16.9 -2.7,-33.9 -4.2,-50.8c-0.5,-5.7 -7.3,-12.5 -15,-10c-6.1,2 -8.8,6 -8.3,13.1c0.9,11.1 2.3,22.1 2.7,33.2c1.1,29.5 -1,58.9 -7.9,87.6c-4,16.6 -8.1,33.2 -14,49.2c-6,16.2 -13.9,31.7 -21.5,47.3c-10.1,20.6 -23.2,39.3 -37.9,56.7c-9.5,11.3 -20.1,21.7 -30.2,32.6c-3.5,3.8 -6.8,7.6 -4.4,13.4c3,7.3 11.5,11.9 19.7,4.4c16.2,-14.9 30.9,-31.3 43.9,-49c20.8,-28 37.7,-58 50.2,-90.5zm-287.7,-140.5c-5.6,-20.7 -8.4,-42 -9.6,-63.2c-1.1,-19.1 -0.5,-38.3 -0.1,-57.4c0.1,-7.6 1.1,-15.3 2.4,-22.9c2.3,-13.6 4.5,-27.4 7.8,-40.7c4.1,-16 8.6,-32 14.3,-47.6c5.7,-15.5 13,-30.5 19.6,-45.7c2.4,-5.4 -0.4,-12.8 -5.6,-15.3c-5.5,-2.7 -12.8,0.1 -15.7,5.8c-11.2,21.9 -20.5,44.5 -27.9,67.9c-7.3,23.2 -12.8,46.8 -15.9,70.9c-2.4,18.6 -3.1,37.5 -4.3,53.3c0.9,15.4 1.2,27.8 2.5,40.2c1.5,14.8 3.6,29.5 5.9,44.1c1.4,8.5 3.6,16.9 5.9,25.2c1.4,4.9 6.1,7.4 11.4,7.3c5.1,-0.1 9.4,-2.8 10.2,-8c0.7,-4.5 0.3,-9.5 -0.9,-13.9zm566.3,-306.8c-16.6,-13.5 -34.7,-24.9 -54.2,-33.4c-15.2,-6.7 -31.2,-11.9 -47.3,-16.5c-12.6,-3.6 -25.7,-6.1 -38.7,-7.3c-14.7,-1.3 -29.7,-1.6 -44.5,-0.6c-16.2,1.1 -32.6,2.9 -48.3,6.9c-17.1,4.3 -33.5,11.2 -50.1,17.2c-5.7,2.1 -9,9.6 -7,14.5c3,7 9.6,9.6 16.3,7.1c13.4,-4.9 26.8,-9.8 40.4,-14c20.2,-6.2 41.1,-8.7 65,-8.7c24.1,-0.9 46.6,3.4 68.3,9.4c22.3,6.1 43.3,15.5 62.9,27.9c9.2,5.8 17.8,12.5 26.5,19c5.3,3.9 11,4 15.9,-0.2c4.6,-4 5.5,-8.8 1.9,-14.3c-1.7,-2.7 -4.5,-4.9 -7.1,-7zm-74.8,501.1c5.3,-14.5 9.7,-29.4 13.5,-44.3c4,-15.6 7.1,-31.4 10.2,-47.2c2.1,-10.9 3.4,-21.9 4.8,-31.3c0.3,-8.6 -3.9,-13.8 -10.5,-14.6c-4.6,-0.6 -11.5,2.1 -12.8,10.1c-0.8,5 -1.5,10 -2.3,15c-2.3,13.5 -4.3,27.1 -7,40.5c-2.1,10.2 -4.8,20.3 -7.7,30.3c-4.4,14.9 -8.7,29.9 -14,44.5c-5.7,15.7 -12.3,31.1 -19.2,46.3c-5.6,12.2 -11.7,24.2 -18.4,35.9c-8.6,14.9 -18,29.4 -27,44c-2.6,4.2 -2.2,9.7 0.6,13.2c6,7.3 14.8,6.2 20.6,-2.6c3.9,-5.9 8,-11.9 11.5,-18.1c11.1,-19.8 23,-39.3 32.7,-59.7c9.4,-20.2 17.3,-41.1 25,-62zm240.7,-238.7c-0.3,-3.3 -1.8,-7 -3.8,-9.7c-3.1,-4.2 -8.1,-4.4 -12.6,-2.7c-5,1.9 -7.6,6.2 -7.4,11.6c0.3,8.3 1.1,16.7 1.2,25c0.6,39.1 -0.1,78.2 -5.6,117.1c-2.2,15.5 -3.8,31.1 -6.8,46.4c-3.9,19.9 -9,39.6 -13.5,59.5c-0.4,1.8 -0.3,4 0.4,5.7c1.6,3.9 3.5,7.9 8.7,8c6.1,0 12.8,-4.4 14.4,-9.5c1.7,-5.8 3.4,-11.6 4.5,-17.4c4.3,-21.6 8.9,-43.1 12.3,-64.8c3.4,-21.9 6,-44 7.8,-66c1.6,-18.8 1.5,-37.6 2.2,-57.8c-0.3,-6.2 -0.7,-13.7 -1,-21.2c-0.3,-8.2 -0.1,-16.2 -0.8,-24.2zm-640.6,110.2c4.5,-12 7.4,-24.6 10,-37.2c4.3,-20.5 2.2,-41 -1.3,-61.4c-2.3,-13.2 -4.3,-26.4 -6.4,-39.5c0.3,-0.1 0.6,-0.1 0.9,-0.2c0.1,-1.3 0.3,-2.6 0.2,-3.9c0,-5.4 -2,-9.8 -7.2,-12.2c-4.7,-2.2 -9.7,-2.6 -14,0.3c-4.5,3.1 -4.4,8.1 -3.6,13c0.4,2.9 1,5.8 1.4,8.7c1.3,11.3 1.7,22.9 4.1,34c4.1,18.9 5.4,37.6 2.7,56.8c-3.2,22 -10.5,42.3 -23.3,60.3c-7.6,10.6 -17.1,19.9 -26.1,29.5c-4.5,4.8 -6,9.9 -3.3,14.9c4.1,7.4 12.5,8.7 19.3,2.3c7,-6.6 13.8,-13.5 20,-20.7c11.6,-13.3 20.5,-28.3 26.6,-44.7zm244.4,95.6c3.4,-7 0.5,-14.7 -6.1,-17.2c-6.2,-2.4 -13.1,1.6 -15.8,8.7c-8.3,21.9 -18.9,42.8 -31,62.8c-16.1,26.5 -35,50.9 -56.7,73.1c-3.1,3.2 -4.7,7.2 -3,11.7c1.8,4.9 6.5,8.1 11.8,9.2c3,-1.9 6.6,-3.3 8.9,-5.9c9.1,-9.8 18.5,-19.3 26.4,-30c12.8,-17.1 25.7,-34.4 36.4,-52.9c11.1,-19.1 19.6,-39.6 29.1,-59.5zm-160.4,-30.3c6.9,-9 10.3,-19.3 14.4,-29.4c3.2,-7.8 -2.6,-15.6 -10.9,-15.5c-6,0.1 -9.8,3.7 -12.6,11.1c-3.2,8.4 -6.5,16.9 -10.4,25c-2.1,4.5 -5.6,8.3 -8.4,12.4c-1.5,2.3 -2.7,4.9 -4.1,7.2c-2.6,4.2 -5,8.5 -8,12.3c-5.6,6.9 -11.6,13.4 -17.4,20c-3.5,4 -6.9,8.1 -10.8,11.7c-4.4,4 -9.4,7.3 -14,11.2c-4.4,3.8 -5.5,12.2 -2.5,16.3c4.1,5.5 11.2,6.5 16.8,2.1c21.8,-17.4 40.1,-38.1 55.3,-61.3c4.9,-7.3 7.3,-16.3 12.6,-23.1zm418.4,36.4c-5.4,0 -10,3.4 -11.5,8.6c-1.2,4.2 -2.3,8.5 -3.7,12.6c-5.4,16.3 -10.3,32.8 -16.5,48.8c-7.2,18.6 -15.5,36.7 -23.1,55.1c-1.5,3.6 -3,7.9 -2.6,11.6c0.7,5.5 5.3,8.8 10.6,9.3c4.9,0.4 9,-2.2 11.3,-7c4.8,-10.3 10,-20.4 14.4,-30.8c12.7,-30.3 23.4,-61.3 32.3,-92.9c2.1,-7.5 -3.6,-15.3 -11.2,-15.3z" class="st3" id="XMLID_390_"/>
    </g>
   </g>
  </g>
  <g id="XMLID_68_">
   <g id="XMLID_133_">
    <g id="Shape_4_copy_11_20_">
     <g id="XMLID_62_">
      <path d="m1059.2,243c4.2,3.9 16.5,18.6 -1.7,35.7c-21.4,20 -80.3,74.3 -80.3,74.3s-32.2,23.8 -6.3,66.9c0,0 -5.9,-13.7 3.9,-23.1c0,0 86.9,-82 91.5,-85.8c2.8,-3.2 31.8,-33.6 -7.1,-68zm0,0c-0.7,-0.7 -1.4,-1 -1.4,-1c0.7,0.3 1.1,0.7 1.4,1z" class="st4" id="XMLID_160_"/>
     </g>
    </g>
    <g id="Shape_4_copy_11_19_">
     <g id="XMLID_151_">
      <path d="m976.9,145.2c-0.7,-0.7 -1.4,-1 -1.4,-1c0.7,0.3 1,0.7 1.4,1zm0,0c4.2,3.9 16.5,18.6 -1.7,35.7c-21.4,20 -177,172.1 -177,172.1s-32.2,23.8 -6.3,66.9c0,0 -5.9,-13.7 3.9,-23.1c0,0 184,-179.4 188.2,-183.6c2.3,-3.1 31.8,-33.6 -7.1,-68z" class="st5" id="XMLID_60_"/>
     </g>
    </g>
    <g id="Shape_4_copy_11_18_">
     <g id="XMLID_146_">
      <path d="m1059.2,174.7c-0.7,-0.7 -1.4,-1 -1.4,-1c0.7,0.3 1.1,0.6 1.4,1zm0,0c4.2,3.9 16.5,18.6 -1.7,35.7c-21.4,20 -80.3,74.3 -80.3,74.3s-32.2,23.8 -6.3,66.9c0,0 -5.9,-13.7 3.9,-23.1c0,0 86.9,-82 91.5,-85.8c2.8,-3.2 31.8,-33.7 -7.1,-68z" class="st4" id="XMLID_149_"/>
     </g>
    </g>
    <g id="Shape_4_copy_11_17_">
     <g id="XMLID_59_">
      <path d="m933.8,319.1c-0.7,-0.7 -1.4,-1 -1.4,-1c0.7,0.3 1,0.6 1.4,1zm0,0c4.2,3.9 16.5,18.6 -1.7,35.7c-21.4,20 -80.3,74.3 -80.3,74.3s-32.2,23.8 -6.3,66.9c0,0 -5.9,-13.7 3.9,-23.1c0,0 86.9,-82 91.5,-85.8c2.7,-3.2 31.7,-33.7 -7.1,-68z" class="st5" id="XMLID_194_"/>
     </g>
    </g>
    <g id="XMLID_53_">
     <g id="XMLID_58_">
      <g id="XMLID_182_">
       <defs>
        <rect height="127.2" width="108.3" transform="matrix(-0.7071,-0.7071,0.7071,-0.7071,1251.4717,1232.8083) " y="293.6" x="826.9" id="XMLID_96_"/>
       </defs>
       <clipPath id="XMLID_269_">
        <use id="svg_2" xlink:href="#XMLID_96_"/>
       </clipPath>
       <g class="st6" id="Shape_4_copy_11_16_">
        <g id="XMLID_197_">
         <path d="m866.1,414.7c0.7,0.7 1.4,1 1.4,1c-0.7,-0.3 -1,-0.6 -1.4,-1zm85.2,-178.4c0,0 6.3,13.3 -3.5,23.1c0,0 -85.5,83.4 -89.7,87.6c-2.8,2.8 -31.2,34 8.1,67.6c-4.2,-3.9 -16.8,-18.2 1,-35.7c21,-20.7 78.9,-75.7 78.9,-75.7s31.8,-24.1 5.2,-66.9z" class="st5" id="XMLID_200_"/>
        </g>
       </g>
      </g>
     </g>
     <g id="Shape_4_copy_11_15_">
      <g id="XMLID_204_">
       <path d="m854.9,241.3c0.3,0.3 0.7,0.7 1,1.4c0,-0.4 -0.3,-0.7 -1,-1.4zm-67.6,-7.7c-4.2,4.2 -87.3,90.4 -87.3,90.4c-9.8,9.8 -23.1,3.5 -23.1,3.5c42.8,26.3 66.9,-5.6 66.9,-5.6s55,-57.8 75.4,-79.2c17.2,-17.9 31.5,-5.6 35.7,-1.4c-34,-39.3 -64.8,-10.6 -67.6,-7.7z" class="st4" id="XMLID_205_"/>
      </g>
     </g>
     <g id="Shape_4_copy_11_13_">
      <g id="XMLID_210_">
       <path d="m969.9,495.7c0.7,0.7 1.4,1 1.4,1c-0.7,-0.3 -1.1,-0.7 -1.4,-1zm88.3,-176.6c0,0 5.9,13.7 -3.9,23.1c0,0 -86.9,82 -91.1,85.8c-2.8,2.8 -31.9,33.3 6.7,67.6c-4.2,-3.9 -16.5,-18.6 1.7,-35.7c21.4,-20 80.3,-74.3 80.3,-74.3s32.2,-23.4 6.3,-66.5z" class="st4" id="XMLID_211_"/>
      </g>
     </g>
     <g id="XMLID_55_">
      <g id="XMLID_56_">
       <g id="XMLID_137_">
        <defs>
         <rect height="127.2" width="108.3" transform="matrix(0.7071,0.7071,-0.7071,0.7071,447.7096,-492.1414) " y="230.8" x="763.8" id="XMLID_65_"/>
        </defs>
        <clipPath id="XMLID_270_">
         <use id="svg_3" xlink:href="#XMLID_65_"/>
        </clipPath>
        <g class="st7" id="Shape_4_copy_11_14_">
         <g id="XMLID_214_">
          <path d="m760.3,309.3c-0.3,-0.3 -0.7,-0.7 -1,-1.4c0,0.3 0.3,0.7 1,1.4zm111.5,-79.9c0,0 -55.4,57.8 -75.7,78.9c-17.5,17.9 -31.5,5.2 -35.7,1c33.6,39.3 64.8,10.9 67.6,8.1c4.2,-4.2 87.6,-89.7 87.6,-89.7c9.8,-9.8 23.1,-3.5 23.1,-3.5c-42.8,-26.7 -66.9,5.2 -66.9,5.2z" class="st4" id="XMLID_215_"/>
         </g>
        </g>
       </g>
      </g>
     </g>
     <g id="Shape_1_copy">
      <g id="XMLID_368_">
       <path d="m921.9,471.5c0.4,-1.3 0.6,-2.7 0.8,-4c0.2,-1.5 0.4,-3 0.4,-4.5c0,-1.5 -0.1,-2.9 -0.2,-4.4c-0.1,-1.2 -0.3,-2.4 -0.5,-3.6c-0.4,-1.9 -2.1,-3.4 -4.2,-3.3c-1.2,0 -2.2,0.5 -3.1,1.3c-1.1,1.2 -1.4,2.6 -1,4.2c0.3,1.3 0.4,2.6 0.5,3.9c0,1 0,2 -0.1,3c-0.1,1.2 -0.3,2.3 -0.5,3.5c-0.1,0.4 0.1,0.9 0.5,1c0.5,0.1 0.9,0 1,-0.5c0.2,-0.6 0.3,-1.1 0.3,-1.7c0.1,-1 0.3,-2 0.3,-3c0,-1.2 0,-2.3 -0.1,-3.5c-0.1,-0.9 -0.2,-1.8 -0.4,-2.7c-0.1,-0.4 -0.2,-0.8 -0.2,-1.1c0.1,-1.2 0.6,-2.1 1.9,-2.6c1.2,-0.4 2.5,0.1 3.1,1.2c0.2,0.4 0.3,0.9 0.4,1.3c0.2,1 0.4,2.1 0.5,3.2c0.1,1 0.1,2 0.2,3.2c-0.1,1 -0.1,2.2 -0.2,3.4c-0.1,1 -0.2,2 -0.4,3c-0.3,1.2 -0.6,2.3 -0.9,3.5c-0.4,1.3 -0.9,2.6 -1.4,3.8c-1.1,2.5 -2.5,4.7 -4.1,6.9c-0.3,0.4 -0.2,0.8 0.1,1.1c0.4,0.3 0.8,0.2 1.1,-0.1c0.9,-1.3 1.9,-2.7 2.7,-4.1c0.7,-1.2 1.3,-2.4 1.8,-3.7c0.7,-1.6 1.3,-3.1 1.7,-4.7zm11.1,-2.1c0.1,-1 0.3,-1.9 0.4,-2.9c0.1,-1.4 0.2,-2.9 0.3,-4.3c-0.1,-1.4 -0.1,-2.8 -0.2,-4.2c-0.2,-1.6 -0.4,-3.1 -0.7,-4.6c-0.2,-1 -0.5,-2 -0.9,-3c-0.6,-1.6 -1.6,-3 -2.8,-4.3c-1.1,-1.2 -2.3,-2.1 -3.7,-2.9c-1.7,-1 -3.6,-1.6 -5.6,-1.7c-1.3,-0.1 -2.6,-0.1 -3.9,0.1c-1.4,0.2 -2.7,0.7 -4,1.3c-1.8,0.9 -3.4,2.2 -4.7,3.8c-1.5,1.8 -2.5,3.9 -3.1,6.2c-0.3,1.4 -0.5,2.8 -0.3,4.2c0.1,1 0.4,1.9 0.4,2.9c0.1,1.1 0.1,2.1 0.1,3.2c0,0.3 0,0.7 0,1c0,0.4 0.4,0.7 0.8,0.7c0.4,0 0.7,-0.3 0.7,-0.7c0,-0.9 0.1,-1.9 0.1,-2.8c0,-0.5 -0.1,-1.1 -0.2,-1.6c-0.1,-0.8 -0.3,-1.7 -0.4,-2.5c-0.1,-0.9 0,-1.7 0.1,-2.6c0.1,-1.4 0.5,-2.7 1.1,-4c0.7,-1.6 1.7,-2.9 3,-4.1c2.2,-2 4.9,-3.2 7.9,-3.3c1.7,-0.1 3.4,0.1 5.1,0.6c1.6,0.6 3.1,1.4 4.4,2.5c2.4,2.1 3.8,4.7 4.3,7.8c0.2,1.2 0.4,2.4 0.5,3.6c0.1,1.3 0.2,2.5 0.3,3.8c0,1.2 0,2.4 -0.1,3.6c-0.1,1.4 -0.3,2.9 -0.5,4.3c0,0.3 0,0.6 0.3,0.9c0.6,0 1.2,-0.4 1.3,-1zm2.8,-23.1c0.8,1.5 1.4,3 1.8,4.6c0.3,1.2 0.5,2.4 0.7,3.6c0.1,0.5 0.5,0.8 0.9,0.7c0.4,0 0.7,-0.5 0.7,-0.9c-0.3,-1.4 -0.5,-2.7 -0.8,-4.1c-0.3,-1.5 -0.9,-2.9 -1.6,-4.2c-0.9,-1.8 -2.1,-3.4 -3.4,-4.8c-1.2,-1.3 -2.6,-2.4 -4.1,-3.4c-1.5,-1 -3.1,-1.8 -4.7,-2.3c-1.2,-0.4 -2.4,-0.7 -3.6,-0.9c-1.1,-0.2 -2.2,-0.2 -3.2,-0.3c-0.9,0.1 -1.7,0.1 -2.4,0.2c-1.2,0.2 -2.5,0.4 -3.7,0.7c-1.3,0.3 -2.5,0.9 -3.8,1.5c-1.8,0.9 -3.4,2.1 -4.9,3.4c-1.1,1 -2.1,2.2 -3,3.4c-1.1,1.5 -2,3.2 -2.6,5c-0.4,1.2 -0.7,2.4 -1,3.6c-0.1,0.4 0.1,0.8 0.4,0.9c0.4,0.2 0.8,0.1 1,-0.3c0.2,-0.3 0.2,-0.6 0.3,-0.9c0.2,-0.8 0.4,-1.7 0.7,-2.5c0.3,-0.9 0.7,-1.7 1.1,-2.5c0.9,-1.9 2.2,-3.6 3.7,-5.1c1.2,-1.2 2.4,-2.2 3.9,-3c1.5,-0.9 3,-1.6 4.7,-2c1.1,-0.3 2.3,-0.5 3.5,-0.6c1.1,-0.1 2.1,-0.2 3.2,-0.1c1.4,0.2 2.8,0.3 4.1,0.7c1.4,0.4 2.8,1 4.1,1.6c1.6,0.8 3,1.9 4.3,3.1c1.5,1.5 2.7,3.1 3.7,4.9zm-40.3,14.5c-0.2,-1.2 -0.4,-2.4 -0.5,-3.6c-0.1,-1.4 -0.1,-2.8 0.1,-4.1c0.1,-0.9 0.2,-1.8 0.5,-2.6c0.3,-1.2 0.7,-2.3 1.1,-3.5c0.6,-1.6 1.5,-3.1 2.4,-4.5c1.1,-1.5 2.2,-2.9 3.7,-4.1c1.1,-0.9 2.1,-1.7 3.3,-2.5c1.3,-0.9 2.7,-1.5 4.2,-2c1.2,-0.4 2.5,-0.8 3.7,-1c1,-0.2 2.1,-0.3 3.1,-0.4c1.4,-0.1 2.8,0 4.3,0.2c0.5,0.1 0.9,-0.2 1,-0.6c0.1,-0.5 -0.3,-0.9 -0.8,-0.9c-1,-0.1 -2.1,-0.2 -3.1,-0.2c-0.7,0.1 -1.4,0.1 -2.1,0.1c-0.9,0.1 -1.7,0.1 -2.6,0.3c-1.2,0.2 -2.3,0.6 -3.4,0.9c-1.9,0.6 -3.6,1.5 -5.3,2.5c-2,1.2 -3.7,2.7 -5.3,4.5c-0.9,1 -1.8,2.1 -2.5,3.3c-0.6,1 -1.2,2 -1.7,3.1c-0.7,1.6 -1.3,3.2 -1.6,4.9c-0.2,1 -0.4,2 -0.5,3c-0.2,1.8 -0.1,3.5 0.1,5.3c0.1,0.7 0.2,1.3 0.3,2c0.2,1 0.2,2 -0.1,2.9c-0.2,0.9 -0.7,1.8 -1.4,2.5c-0.3,0.4 -0.3,0.9 0.1,1.2c0.4,0.3 0.8,0.2 1.1,-0.2c0.9,-1 1.5,-2.2 1.8,-3.5c0.2,-1 0.2,-2 0.1,-3zm48.1,-4.5c-0.1,-0.9 -0.2,-1.8 -0.3,-2.7c-0.2,-1.2 -0.5,-2.4 -0.7,-3.6c-0.3,-1.5 -0.8,-2.9 -1.4,-4.2c-1,-2.1 -2.1,-4.1 -3.7,-5.8c-0.4,-0.4 -0.7,-0.9 -1.1,-1.3c-0.6,-0.6 -1.2,-1.1 -1.8,-1.7c-1.4,-1.3 -3,-2.3 -4.6,-3.2c-1.3,-0.7 -2.6,-1.2 -4,-1.7c-0.5,-0.2 -0.9,0.1 -1.1,0.5c-0.2,0.4 0.1,0.8 0.5,1c0.9,0.3 1.7,0.6 2.6,1c2,0.9 3.9,2.1 5.5,3.6c1.3,1.2 2.5,2.4 3.6,3.9c1.2,1.6 2.1,3.3 2.8,5.1c0.7,1.7 1.2,3.4 1.4,5.1c0.2,1.5 0.5,3 0.6,4.5c0.1,1.4 0.2,2.8 0.3,4.2c0,1.7 -0.1,3.4 -0.1,5.1c0,0.4 -0.1,0.8 -0.1,1.1c-0.1,0.6 -0.1,1.2 -0.2,1.8c0,0.6 0.4,0.8 0.7,0.8c0.3,0 0.8,-0.3 0.8,-0.7c0.1,-1.3 0.3,-2.5 0.3,-3.8c0.1,-1 0,-2.1 0,-3.1c0,0 0.1,0 0.1,0c0.2,-2 0,-4 -0.1,-5.9zm-35.4,12.6c0.3,-1.1 0.7,-2.2 0.8,-3.3c0.2,-1.2 0.2,-2.4 0.3,-3.6c0,-1.3 -0.1,-2.6 -0.3,-3.9c-0.1,-0.7 -0.2,-1.4 -0.3,-2.2c0.1,-1 0.2,-2 0.5,-2.9c0.3,-1.1 0.9,-2.1 1.6,-3c0.8,-1.1 1.9,-2 3.1,-2.6c1.6,-0.9 3.4,-1.2 5.2,-1.1c0.2,0 0.4,-0.1 0.5,-0.2c0.3,-0.2 0.3,-0.5 0.2,-0.8c-0.1,-0.4 -0.4,-0.6 -0.8,-0.6c-0.6,0 -1.2,0 -1.8,0.1c-1.1,0.1 -2.2,0.4 -3.3,0.8c-2.3,1 -4.1,2.6 -5.4,4.8c-0.9,1.5 -1.4,3.1 -1.4,4.8c0,0.8 0,1.5 0.1,2.3c0.1,1.1 0.4,2.2 0.4,3.3c0.1,1.2 0.1,2.4 -0.1,3.6c-0.2,1.1 -0.4,2.3 -0.7,3.4c-0.5,1.7 -1.2,3.4 -2.2,4.9c-1.1,1.7 -2.3,3.2 -3.8,4.5c-0.4,0.3 -0.4,0.7 -0.1,1.1c0.3,0.3 0.7,0.4 1.1,0.1c0.3,-0.3 0.6,-0.5 0.9,-0.8c1.5,-1.4 2.8,-3.1 3.8,-4.9c0.8,-1.2 1.4,-2.5 1.7,-3.8zm21,1.9c0.2,-1 0.4,-2.1 0.5,-3.1c0.1,-0.5 0.1,-1.1 0.2,-1.6c0.1,-0.6 0.2,-1.1 0.2,-1.7c0,-0.8 0,-1.5 0,-2.3c0,0 0.1,0 0.1,0c-0.1,-1.5 -0.2,-2.9 -0.3,-4.4c-0.1,-0.9 -0.2,-1.7 -0.4,-2.5c-0.1,-0.7 -0.2,-1.5 -0.4,-2.2c-0.4,-1.5 -1.1,-2.9 -2.1,-4.1c-0.9,-1.1 -1.9,-2 -3.2,-2.7c-0.4,-0.2 -0.9,-0.1 -1.1,0.3c-0.2,0.4 -0.1,0.8 0.3,1.1c0.2,0.1 0.5,0.3 0.7,0.4c2.1,1.4 3.4,3.4 4,5.9c0.3,1.2 0.5,2.5 0.6,3.8c0.1,1.4 0.2,2.8 0.2,4.2c0,1 -0.1,2 -0.1,3c-0.1,0.9 -0.1,1.8 -0.3,2.8c-0.1,1 -0.3,1.9 -0.5,2.9c-0.3,1.1 -0.5,2.3 -0.9,3.4c-0.3,1 -0.7,2 -1.1,3c-0.6,1.4 -1.2,2.8 -1.9,4.2c-0.2,0.5 -0.6,1 -0.8,1.5c-0.2,0.4 -0.1,0.8 0.3,1c0.4,0.2 0.8,0.1 1,-0.2c0.5,-0.8 0.9,-1.7 1.4,-2.5c0.5,-1 1,-2.1 1.4,-3.2c0.4,-1 0.8,-1.9 1.1,-2.9c0.4,-1.4 0.8,-2.8 1.1,-4.1zm-32.5,-30.7c0.2,-0.2 0.3,-0.5 0.5,-0.7c1.1,-1.3 2.2,-2.6 3.5,-3.7c0.7,-0.6 1.4,-1.2 2.2,-1.7c1.1,-0.7 2.2,-1.4 3.4,-2c0.9,-0.5 1.8,-0.9 2.8,-1.2c1.2,-0.4 2.4,-0.7 3.7,-1c1,-0.2 2.1,-0.4 3.2,-0.5c1.2,-0.1 2.5,-0.1 3.8,-0.1c1,0 2.1,0.2 3.1,0.3c0.8,0.1 1.5,0.3 2.3,0.5c1,0.3 2,0.6 2.9,0.9c0.8,0.3 1.5,0.7 2.3,1c0.5,0.2 1.1,-0.2 1.1,-0.7c0,-0.4 -0.2,-0.6 -0.5,-0.7c-0.5,-0.2 -1,-0.5 -1.5,-0.7c-1,-0.4 -1.9,-0.8 -3,-1.1c-1.3,-0.3 -2.5,-0.6 -3.8,-0.8c-1.1,-0.2 -2.2,-0.3 -3.2,-0.3c-1.5,-0.1 -3.1,0 -4.6,0.3c-1.3,0.2 -2.6,0.4 -3.8,0.8c-1.4,0.4 -2.8,0.9 -4.2,1.5c-1.3,0.6 -2.5,1.3 -3.7,2c-2.2,1.3 -4.1,3 -5.7,4.9c-0.6,0.7 -1.2,1.4 -1.8,2.2c-0.4,0.4 -0.2,0.9 0.2,1.1c0,0.1 0.5,0 0.8,-0.3zm39.7,14.4c-0.2,-1.2 -0.4,-2.4 -0.7,-3.6c-0.3,-1.3 -0.8,-2.5 -1.5,-3.7c-0.4,-0.7 -0.8,-1.4 -1.3,-2c-0.1,-0.2 -0.5,-0.3 -0.7,-0.3c-0.6,0.1 -0.9,0.7 -0.5,1.2c0.3,0.5 0.7,0.9 0.9,1.4c0.4,0.9 0.9,1.8 1.2,2.7c0.4,1 0.6,2.1 0.8,3.2c0.2,1 0.3,1.9 0.5,2.9c0.1,0.9 0.2,1.7 0.2,2.6c0,2 0.1,3.9 0,5.9c0,1.2 -0.2,2.4 -0.3,3.5c-0.1,1 -0.2,1.9 -0.4,2.9c-0.3,1.3 -0.6,2.5 -0.9,3.8c-0.4,1.4 -0.9,2.7 -1.3,4.1c-0.1,0.3 0,0.7 0.2,0.9c0.2,0.2 0.5,0.2 0.7,0.1c0.3,-0.2 0.5,-0.4 0.6,-0.8c0.2,-0.5 0.4,-1 0.5,-1.6c0.4,-1.4 0.9,-2.9 1.2,-4.3c0.3,-1.1 0.5,-2.2 0.6,-3.3c0.2,-1.3 0.4,-2.7 0.5,-4c0.1,-1.3 0.1,-2.6 0.2,-3.9c-0.1,-1.3 -0.1,-2.6 -0.2,-3.9c0.1,-1.3 -0.1,-2.5 -0.3,-3.8zm-34.9,12.9c0.3,-0.7 0.5,-1.5 0.7,-2.2c0.2,-0.7 0.2,-1.4 0.3,-2c0.1,-0.6 0.1,-1.3 0,-1.9c-0.1,-1 -0.3,-1.9 -0.4,-2.9c-0.2,-1.2 -0.3,-2.4 -0.1,-3.7c0.1,-1 0.3,-2.1 0.5,-3.1c0.2,-0.8 0.5,-1.6 0.8,-2.4c0.5,-1.2 1.2,-2.3 1.9,-3.3c0.8,-1.1 1.7,-2 2.7,-2.8c0.4,-0.3 0.4,-0.8 0.1,-1.1c-0.3,-0.3 -0.7,-0.4 -1.1,-0.1c-1.5,1.2 -2.8,2.6 -3.8,4.2c-1,1.6 -1.8,3.2 -2.2,5c-0.4,1.3 -0.6,2.7 -0.6,4.1c0,0.7 0,1.5 0.1,2.2c0,0.4 0.1,0.8 0.2,1.2c0.1,1 0.3,2 0.4,3c0.1,1.3 -0.1,2.5 -0.4,3.8c-0.4,1.5 -1,2.8 -1.9,4.1c-0.7,1 -1.6,1.9 -2.5,2.7c-0.3,0.2 -0.4,0.6 -0.3,0.9c0.1,0.3 0.4,0.5 0.8,0.5c0.1,0 0.3,-0.1 0.4,-0.2c0.7,-0.6 1.4,-1.3 2,-2c1,-1.1 1.8,-2.5 2.4,-4zm17.2,2.9c0.4,-1.5 0.7,-3.1 0.9,-4.6c0.1,-1.2 0.2,-2.3 0.2,-3.6c-0.1,-1.2 -0.2,-2.6 -0.3,-3.9c-0.1,-0.8 -0.2,-1.5 -0.4,-2.3c-0.1,-0.5 -0.5,-0.8 -0.9,-0.7c-0.4,0.1 -0.7,0.6 -0.6,1c0.2,1.1 0.4,2.2 0.5,3.3c0.1,1.2 0.1,2.5 0.1,3.7c0,1.6 -0.2,3.2 -0.5,4.8c-0.2,0.9 -0.4,1.8 -0.7,2.7c-0.3,1 -0.7,2.1 -1.1,3.1c-0.4,1 -0.9,2 -1.4,2.9c-0.8,1.5 -1.7,2.8 -2.7,4.1c-0.4,0.5 -0.8,0.9 -1.1,1.4c-0.2,0.3 -0.2,0.7 0,0.9c0.3,0.3 0.7,0.4 1,0.2c0.2,-0.2 0.4,-0.4 0.6,-0.6c1.7,-2 3.1,-4.2 4.3,-6.5c0.8,-1.9 1.5,-3.8 2.1,-5.9zm27.8,-17.9c-0.1,-1 -0.3,-2 -0.5,-2.9c-0.3,-1 -0.6,-2.1 -0.9,-3.1c-0.4,-1 -0.8,-2 -1.3,-3c-0.6,-1.3 -1.3,-2.6 -2.2,-3.7c-0.8,-1 -1.6,-2.1 -2.4,-3.1c-0.8,-0.8 -1.6,-1.6 -2.5,-2.3c-0.7,-0.6 -1.4,-1.1 -2.1,-1.6c-0.4,-0.3 -0.8,0 -1.1,0.3c-0.2,0.3 0,0.8 0.3,1c0.2,0.2 0.5,0.3 0.7,0.5c1.1,1 2.3,1.9 3.4,2.9c0.6,0.5 1,1.2 1.5,1.8c0.7,1 1.4,2 2.1,3.1c0.8,1.2 1.4,2.5 1.9,3.9c0.5,1.3 0.9,2.7 1.2,4.1c0.2,1.1 0.4,2.2 0.5,3.2c0.1,1 0.1,2 0.1,3c0,0.4 0.3,0.8 0.7,0.8c0.3,0.1 0.7,-0.2 0.8,-0.6c0.1,-0.3 0.1,-0.7 0.1,-1.2c-0.1,-1 -0.1,-2 -0.3,-3.1zm-20.1,5c-0.1,-0.7 -0.2,-1.4 -0.3,-2.1c-0.2,-1.2 -0.5,-2.4 -1.2,-3.4c-1.3,-2.1 -3.2,-3.2 -5.5,-3.6c-1.7,-0.3 -3.4,0.1 -4.9,1c-1.8,1 -2.9,2.6 -3.5,4.5c-0.1,0.3 -0.2,0.6 -0.2,0.8c0,0.4 0.4,0.7 0.7,0.7c0.3,0 0.6,-0.2 0.8,-0.6c0.2,-0.6 0.4,-1.2 0.7,-1.8c1.1,-2.1 3.4,-3.2 5.6,-3.1c1.3,0.1 2.5,0.5 3.5,1.3c1.1,0.9 1.8,1.9 2.1,3.3c0.2,1 0.4,2.1 0.5,3.1c0.1,1.5 0.2,3 0.3,4.4c0,0.5 0.3,0.8 0.7,0.8c0.4,0 0.8,-0.3 0.8,-0.8c0,-0.4 0,-0.9 0,-1.5c0.1,-0.8 0,-1.9 -0.1,-3zm-15.3,13.8c0.6,-1.5 1,-3.1 1.3,-4.7c0.3,-1.4 0.4,-2.9 0.4,-4.3c-0.1,-1.1 -0.2,-2.2 -0.3,-3.3c0,-0.4 -0.5,-0.8 -1,-0.7c-0.4,0.1 -0.6,0.4 -0.5,0.9c0.1,0.7 0.2,1.5 0.2,2.2c0.1,1.9 -0.1,3.9 -0.5,5.8c-0.3,1.1 -0.5,2.2 -0.9,3.2c-0.4,1.1 -0.9,2.1 -1.4,3.1c-0.7,1.4 -1.5,2.6 -2.5,3.7c-0.6,0.7 -1.3,1.4 -2,2.1c-0.2,0.2 -0.4,0.5 -0.3,0.9c0.2,0.5 0.8,0.8 1.3,0.3c1.1,-1 2,-2.1 2.9,-3.2c1.4,-1.9 2.5,-3.9 3.3,-6zm-18.9,-9.3c-0.4,-1.4 -0.6,-2.8 -0.6,-4.2c-0.1,-1.3 0,-2.5 0,-3.8c0,-0.5 0.1,-1 0.2,-1.5c0.2,-0.9 0.3,-1.8 0.5,-2.7c0.3,-1.1 0.6,-2.1 0.9,-3.1c0.4,-1 0.9,-2 1.3,-3c0.2,-0.4 0,-0.8 -0.4,-1c-0.4,-0.2 -0.8,0 -1,0.4c-0.7,1.4 -1.3,2.9 -1.8,4.5c-0.5,1.5 -0.8,3.1 -1,4.7c-0.2,1.2 -0.2,2.5 -0.3,3.5c0.1,1 0.1,1.8 0.2,2.6c0.1,1 0.2,1.9 0.4,2.9c0.1,0.6 0.2,1.1 0.4,1.7c0.1,0.3 0.4,0.5 0.8,0.5c0.3,0 0.6,-0.2 0.7,-0.5c-0.2,-0.4 -0.2,-0.7 -0.3,-1zm37.3,-20.2c-1.1,-0.9 -2.3,-1.6 -3.6,-2.2c-1,-0.4 -2.1,-0.8 -3.1,-1.1c-0.8,-0.2 -1.7,-0.4 -2.5,-0.5c-1,-0.1 -2,-0.1 -2.9,0c-1.1,0.1 -2.1,0.2 -3.2,0.5c-1.1,0.3 -2.2,0.7 -3.3,1.1c-0.4,0.1 -0.6,0.6 -0.5,1c0.2,0.5 0.6,0.6 1.1,0.5c0.9,-0.3 1.8,-0.6 2.7,-0.9c1.3,-0.4 2.7,-0.6 4.3,-0.6c1.6,-0.1 3.1,0.2 4.5,0.6c1.5,0.4 2.9,1 4.1,1.8c0.6,0.4 1.2,0.8 1.7,1.3c0.3,0.3 0.7,0.3 1,0c0.3,-0.3 0.4,-0.6 0.1,-0.9c-0.1,-0.3 -0.3,-0.4 -0.4,-0.6zm-5,33c0.4,-1 0.6,-1.9 0.9,-2.9c0.3,-1 0.5,-2.1 0.7,-3.1c0.1,-0.7 0.2,-1.4 0.3,-2.1c0,-0.6 -0.3,-0.9 -0.7,-1c-0.3,0 -0.8,0.1 -0.8,0.7c-0.1,0.3 -0.1,0.7 -0.2,1c-0.1,0.9 -0.3,1.8 -0.5,2.7c-0.1,0.7 -0.3,1.3 -0.5,2c-0.3,1 -0.6,2 -0.9,2.9c-0.4,1 -0.8,2 -1.3,3c-0.4,0.8 -0.8,1.6 -1.2,2.4c-0.6,1 -1.2,1.9 -1.8,2.9c-0.2,0.3 -0.1,0.6 0,0.9c0.4,0.5 1,0.4 1.4,-0.2c0.3,-0.4 0.5,-0.8 0.8,-1.2c0.7,-1.3 1.5,-2.6 2.2,-3.9c0.6,-1.4 1.1,-2.7 1.6,-4.1zm15.9,-15.7c0,-0.2 -0.1,-0.5 -0.3,-0.6c-0.2,-0.3 -0.5,-0.3 -0.8,-0.2c-0.3,0.1 -0.5,0.4 -0.5,0.8c0,0.5 0.1,1.1 0.1,1.6c0,2.6 0,5.1 -0.4,7.7c-0.1,1 -0.2,2 -0.4,3.1c-0.3,1.3 -0.6,2.6 -0.9,3.9c0,0.1 0,0.3 0,0.4c0.1,0.3 0.2,0.5 0.6,0.5c0.4,0 0.8,-0.3 0.9,-0.6c0.1,-0.4 0.2,-0.8 0.3,-1.1c0.3,-1.4 0.6,-2.8 0.8,-4.3c0.2,-1.4 0.4,-2.9 0.5,-4.3c0.1,-1.2 0.1,-2.5 0.1,-3.8c0,-0.4 0,-0.9 -0.1,-1.4c0.1,-0.7 0.1,-1.2 0.1,-1.7zm-42.2,7.2c0.3,-0.8 0.5,-1.6 0.7,-2.4c0.3,-1.3 0.1,-2.7 -0.1,-4c-0.2,-0.9 -0.3,-1.7 -0.4,-2.6c0,0 0,0 0.1,0c0,-0.1 0,-0.2 0,-0.3c0,-0.4 -0.1,-0.6 -0.5,-0.8c-0.3,-0.1 -0.6,-0.2 -0.9,0c-0.3,0.2 -0.3,0.5 -0.2,0.9c0,0.2 0.1,0.4 0.1,0.6c0.1,0.7 0.1,1.5 0.3,2.2c0.3,1.2 0.4,2.5 0.2,3.7c-0.2,1.4 -0.7,2.8 -1.5,4c-0.5,0.7 -1.1,1.3 -1.7,1.9c-0.3,0.3 -0.4,0.7 -0.2,1c0.3,0.5 0.8,0.6 1.3,0.2c0.5,-0.4 0.9,-0.9 1.3,-1.4c0.5,-0.9 1.1,-1.9 1.5,-3zm16.1,6.3c0.2,-0.5 0,-1 -0.4,-1.1c-0.4,-0.2 -0.9,0.1 -1,0.6c-0.5,1.4 -1.2,2.8 -2,4.1c-1.1,1.7 -2.3,3.3 -3.7,4.8c-0.2,0.2 -0.3,0.5 -0.2,0.8c0.1,0.3 0.4,0.5 0.8,0.6c0.2,-0.1 0.4,-0.2 0.6,-0.4c0.6,-0.6 1.2,-1.3 1.7,-2c0.8,-1.1 1.7,-2.3 2.4,-3.5c0.6,-1.2 1.2,-2.6 1.8,-3.9zm-10.6,-2c0.5,-0.6 0.7,-1.3 1,-1.9c0.2,-0.5 -0.2,-1 -0.7,-1c-0.4,0 -0.6,0.2 -0.8,0.7c-0.2,0.6 -0.4,1.1 -0.7,1.6c-0.1,0.3 -0.4,0.5 -0.6,0.8c-0.1,0.2 -0.2,0.3 -0.3,0.5c-0.2,0.3 -0.3,0.6 -0.5,0.8c-0.4,0.5 -0.8,0.9 -1.1,1.3c-0.2,0.3 -0.5,0.5 -0.7,0.8c-0.3,0.3 -0.6,0.5 -0.9,0.7c-0.3,0.2 -0.4,0.8 -0.2,1.1c0.3,0.4 0.7,0.4 1.1,0.1c1.4,-1.1 2.6,-2.5 3.6,-4c0.3,-0.4 0.5,-1 0.8,-1.5zm27.6,2.4c-0.4,0 -0.7,0.2 -0.8,0.6c-0.1,0.3 -0.2,0.6 -0.2,0.8c-0.4,1.1 -0.7,2.2 -1.1,3.2c-0.5,1.2 -1,2.4 -1.5,3.6c-0.1,0.2 -0.2,0.5 -0.2,0.8c0,0.4 0.4,0.6 0.7,0.6c0.3,0 0.6,-0.1 0.7,-0.5c0.3,-0.7 0.7,-1.3 0.9,-2c0.8,-2 1.5,-4 2.1,-6.1c0.3,-0.5 -0.1,-1 -0.6,-1z" class="st3" id="XMLID_369_"/>
      </g>
     </g>
    </g>
   </g>
   <path d="m921.7,462.3c-0.1,-1.2 -0.1,-2.2 -0.2,-3.2c-0.1,-1.1 -0.3,-2.1 -0.5,-3.2c-0.1,-0.5 -0.2,-0.9 -0.4,-1.3c-0.6,-1.2 -1.9,-1.6 -3.1,-1.2c-1.3,0.4 -1.8,1.3 -1.9,2.6c0,0.4 0.1,0.8 0.2,1.1c0.1,0.9 0.3,1.8 0.4,2.7c0.1,1.2 0.1,2.3 0.1,3.5c0,1 -0.2,2 -0.3,3c-0.1,0.6 -0.2,1.2 -0.3,1.7c-0.1,0.5 -0.6,0.6 -1,0.5c-0.3,-0.1 -0.5,-0.5 -0.5,-1c0.2,-1.2 0.4,-2.3 0.5,-3.5c0.1,-1 0.1,-2 0.1,-3c0,-1.3 -0.1,-2.6 -0.5,-3.9c-0.4,-1.6 -0.1,-3 1,-4.2c0.8,-0.9 1.8,-1.3 3.1,-1.3c2,0 3.8,1.4 4.2,3.3c0.2,1.2 0.4,2.4 0.5,3.6c0.1,1.5 0.2,2.9 0.2,4.4c0,1.5 -0.2,3 -0.4,4.5c-0.2,1.4 -0.5,2.7 -0.8,4c-0.5,1.5 -1,3.1 -1.6,4.6c-0.5,1.3 -1.1,2.5 -1.8,3.7c-0.8,1.4 -1.8,2.7 -2.7,4.1c-0.3,0.4 -0.8,0.4 -1.1,0.1c-0.3,-0.3 -0.4,-0.7 -0.1,-1.1c1.6,-2.1 3,-4.4 4.1,-6.9c0.6,-1.2 1.1,-2.5 1.4,-3.8c0.3,-1.2 0.7,-2.3 0.9,-3.5c0.2,-1 0.3,-2 0.4,-3c-0.1,-1.1 0,-2.3 0.1,-3.3z" class="st5" id="XMLID_57_"/>
  </g>
  <g id="XMLID_61_">
   <path d="m408.7,259.1l-2.8,0c-4,0 -7.2,-1.5 -9.7,-4.5c-0.2,-0.2 -2.6,-3.3 -7.2,-9.3c-8.1,5.1 -12.2,10.4 -12.2,16c0,5 2.6,8.6 7.8,10.8c3.7,1.6 8.4,2.3 14.2,2.3c3.4,0 6.4,-0.2 9.2,-0.7l-3.2,5c-5.8,1.8 -11.5,2.7 -17.1,2.7c-5.2,0 -9.7,-1.3 -13.6,-3.8c-4.3,-2.8 -6.5,-6.5 -6.5,-11c0,-7.8 6,-15.8 18,-23.9c-2.4,-2.3 -5.3,-4.3 -8.5,-5.9c3.6,-5.3 8.1,-7.9 13.5,-7.9c6.7,0 10.1,3.4 10.1,10.1c-1.7,0.7 -4.3,1.9 -7.6,3.6c3.9,4 7.9,5.9 12.1,5.9l3.5,0l0,10.6z" class="st5" id="XMLID_71_"/>
   <path d="m434.6,249.4c-2.2,5.5 -4.6,9.1 -7,10.8c-4.2,0 -8.4,-2.1 -12.6,-6.2c-1.8,3.4 -3.9,5 -6.2,5l-2.3,0l0,-10.5l3.4,0c1,0 2.4,-1.8 4.4,-5.4c2.5,-4.4 4.5,-7.4 6,-9c5.1,0 8.8,1.2 11.1,3.7c2.1,2.6 3.2,6.4 3.2,11.6zm-5.8,3.2c0.1,-0.5 0.1,-1 0.1,-1.5c0,-4.8 -2.6,-7.8 -7.7,-8.9c-1.5,1 -2.4,2.5 -3,4.4c1.9,2.8 5.5,4.8 10.6,6z" class="st5" id="XMLID_73_"/>
   <path d="m456.5,259.1l-2.3,0c-4.9,0 -8,-2 -9.5,-6c-1,-2.7 -1.7,-8.8 -2,-18.2c-0.2,-4.7 -0.3,-7.9 -0.6,-9.7c-0.4,-3.5 -1.2,-6.6 -2.4,-9.4l7,-7.3c1.2,1.9 1.9,4.7 2.2,8.6c0.1,1.4 0.2,4.4 0.2,8.9l0,11.3c0,3.4 0.2,5.8 0.7,7.3c0.9,2.7 2.6,4.1 5.2,4.1l1.6,0l0,10.4l-0.1,0z" class="st5" id="XMLID_76_"/>
   <path d="m495.1,244.9l-5.1,8.3c-3.6,-0.7 -6,-1.1 -7.2,-1.1c-2,0 -6.1,1.2 -12.1,3.5c-6.1,2.3 -10.7,3.5 -13.7,3.5l-2.7,0l0,-10.5l5.8,0c6.8,0 12.5,-0.6 17.1,-1.8c-2.5,-1.4 -5.6,-3.3 -9.2,-5.8c-2.3,-1.6 -3.9,-2.4 -4.6,-2.4c-0.8,0 -2.2,1.7 -4.2,5.2c-0.4,0.1 -0.8,-0.1 -1.4,-0.4c-0.6,-0.3 -1,-0.6 -1.2,-1c3.9,-8.6 7.1,-12.8 9.5,-12.8c1.6,0 4.2,1.4 7.7,4.1c5.4,4.2 8.8,6.7 10.1,7.5c4.4,2.7 8.1,3.9 11.2,3.7zm-17.1,25.9l-6.1,5.8l-6.1,-6l6.2,-5.7l6,5.9z" class="st5" id="XMLID_78_"/>
   <path d="m538.4,259.1l-3.1,0c-4.4,0 -7.4,-3.7 -9.1,-11.1c-0.8,3 -2,5.5 -3.4,7.6c-8,0 -13.3,-1.8 -15.9,-5.4c1,-3.9 2,-6.9 2.8,-9.2c3.1,-2.8 7.6,-5.2 13.4,-7.4c-0.2,-1 -0.6,-2.3 -1.3,-4.1l4.5,-6.8c1.3,2 2.4,5.3 3.1,10.1c0.9,6.3 1.5,9.9 1.8,10.8c1,3.4 2.6,5 4.8,5l2.5,0l0,10.5l-0.1,0zm-12.5,-12.6l-1.7,-8.5c-3.9,0.8 -7.6,2.8 -11,5.9c1.5,1.9 4.6,2.8 9.4,2.8c1.2,0 2.3,-0.1 3.3,-0.2z" class="st5" id="XMLID_81_"/>
   <path d="m554.4,242.7c-0.9,5.4 -2.1,9.1 -3.7,11c-2.9,3.6 -6.9,5.4 -12.1,5.4l-2.4,0l0,-10.5l4,0c5.5,0 8.3,-0.8 8.3,-2.5c0,-1.1 -1.4,-3.7 -4.3,-7.6l5.9,-8c2.8,3.9 4.3,7.9 4.3,12.2zm0.5,-23.5l-6.2,5.8l-6,-6l6.3,-5.7l5.9,5.9z" class="st5" id="XMLID_84_"/>
   <path d="m576.4,259.1l-2.3,0c-4.9,0 -8,-2 -9.5,-6c-1,-2.7 -1.7,-8.8 -2,-18.2c-0.2,-4.7 -0.3,-7.9 -0.6,-9.7c-0.4,-3.5 -1.2,-6.6 -2.4,-9.4l7,-7.3c1.2,1.9 1.9,4.7 2.2,8.6c0.1,1.4 0.2,4.4 0.2,8.9l0,11.3c0,3.4 0.2,5.8 0.7,7.3c0.9,2.7 2.6,4.1 5.2,4.1l1.6,0l0,10.4l-0.1,0z" class="st5" id="XMLID_87_"/>
   <path d="m602.2,249.4c-2.2,5.5 -4.6,9.1 -7,10.8c-4.2,0 -8.4,-2.1 -12.6,-6.2c-1.8,3.4 -3.9,5 -6.2,5l-2.3,0l0,-10.5l3.4,0c1,0 2.4,-1.8 4.4,-5.4c2.5,-4.4 4.5,-7.4 6,-9c5.1,0 8.8,1.2 11.1,3.7c2.1,2.6 3.2,6.4 3.2,11.6zm-5.8,3.2c0.1,-0.5 0.1,-1 0.1,-1.5c0,-4.8 -2.6,-7.8 -7.7,-8.9c-1.5,1 -2.4,2.5 -3,4.4c1.9,2.8 5.5,4.8 10.6,6z" class="st5" id="XMLID_89_"/>
   <path d="m624.1,259.1l-2.3,0c-4.9,0 -8,-2 -9.5,-6c-1,-2.7 -1.7,-8.8 -2,-18.2c-0.2,-4.7 -0.3,-7.9 -0.6,-9.7c-0.4,-3.5 -1.2,-6.6 -2.4,-9.4l7,-7.3c1.2,1.9 1.9,4.7 2.2,8.6c0.1,1.4 0.2,4.4 0.2,8.9l0,11.3c0,3.4 0.2,5.8 0.7,7.3c0.9,2.7 2.6,4.1 5.2,4.1l1.6,0l0,10.4l-0.1,0z" class="st5" id="XMLID_105_"/>
   <path d="m673.3,241.6c0,1 -0.4,2.8 -1.3,5.5c-0.4,1.2 -1.1,3.1 -2.1,5.5c-0.9,1.8 -2.2,3.2 -3.9,4.5c-1.9,1.3 -3.7,2 -5.6,2c-2,0 -3.8,-0.8 -5.3,-2.4c-1.5,-1.5 -2.3,-3.3 -2.7,-5.3c-1.4,5.2 -4.6,7.8 -9.5,7.8c-3.6,0 -6.4,-2.6 -8.5,-7.8c-2.6,5.2 -5.8,7.8 -9.5,7.8l-3.1,0l0,-10.5l3.9,0c2.6,0 4.5,-1.3 5.7,-3.8c0.8,-1.7 1.3,-3.6 1.3,-5.6l3.4,0c0,6.3 2.3,9.4 7,9.4c3.1,0 5.3,-1.2 6.7,-3.6c0.9,-1.7 1.4,-3.6 1.4,-5.8l3.4,0c0,6.3 2,9.4 6.1,9.4c3,0 5.4,-0.8 7.3,-2.3c0,-0.7 -1.6,-3.4 -4.9,-8.1l5.9,-7.7c0.9,1 1.8,2.6 2.8,4.9c1,2.3 1.5,4.4 1.5,6.1z" class="st5" id="XMLID_107_"/>
   <path d="m424.5,319.2c0,1.2 -0.7,3.4 -2.2,6.5c-1.5,3.1 -2.6,5 -3.6,5.8c-1.1,0.9 -4.6,2 -10.5,3.4c-7,1.6 -13.5,2.4 -19.4,2.4c-8,0 -13.5,-1.6 -16.5,-4.7c-1.9,-2 -2.9,-4.9 -2.9,-8.8c0,-5.3 1.5,-10.3 4.5,-15c0.1,0 0.3,0 0.4,0c1.1,0 1.9,0.4 2.3,1.3c-1.6,3.7 -2.3,6.5 -2.3,8.4c0,5.6 6.1,8.5 18.2,8.5c11,0 19.6,-1.3 25.9,-3.9c-1.1,-2.8 -2.5,-5.3 -4.2,-7.7l5.8,-7.9c1.2,1.5 2.2,3.6 3.2,6.3c0.9,2.4 1.3,4.2 1.3,5.4zm-28.3,-15.8l-5.7,5.3l-5.5,-5.6l5.8,-5.1l5.4,5.4zm14,-0.8l-5.7,5.3l-5.5,-5.6l5.8,-5.2l5.4,5.5z" class="st4" id="XMLID_109_"/>
   <path d="m445.1,337.3l-2.3,0c-4.9,0 -8,-2 -9.5,-6c-1,-2.7 -1.7,-8.8 -2,-18.2c-0.2,-4.7 -0.3,-7.9 -0.6,-9.7c-0.4,-3.5 -1.2,-6.6 -2.4,-9.4l7,-7.3c1.2,1.9 1.9,4.7 2.2,8.6c0.1,1.4 0.2,4.4 0.2,8.9l0,11.3c0,3.4 0.2,5.8 0.7,7.3c0.9,2.7 2.6,4.1 5.2,4.1l1.6,0l0,10.4l-0.1,0z" class="st4" id="XMLID_113_"/>
   <path d="m476.8,337.3l-34,0l0,-10.5l34,0l0,10.5z" class="st4" id="XMLID_115_"/>
   <path d="m508.5,337.3l-34,0l0,-10.5l34,0l0,10.5z" class="st4" id="XMLID_117_"/>
   <path d="m540.2,337.3l-34,0l0,-10.5l34,0l0,10.5z" class="st4" id="XMLID_119_"/>
   <path d="m574.3,320.9l-4.4,9.6c-5,1.1 -11.7,2.7 -19.9,4.8c-5,1.3 -8.2,1.9 -9.6,1.9l-2.4,0l0,-10.5l5.7,0c0.7,0 2.1,-0.1 4.2,-0.3c-3.1,-1.9 -4.6,-4.5 -4.6,-8c0,-3.5 1.9,-6.9 5.7,-10.3c3.5,-3.1 6.6,-4.6 9.3,-4.6c4.4,0 7.9,2.4 10.7,7.1c0.5,0.8 0.5,1.2 0.1,1.2c-0.2,0 -0.5,-0.1 -1,-0.3c-1.5,-0.5 -3.3,-0.8 -5.5,-0.8c-4.7,0 -8.4,1.1 -11.2,3.2c0.5,5 3.4,8.5 8.6,10.8l14.3,-3.8z" class="st4" id="XMLID_121_"/>
   <path d="m621,337.3l-2.4,0c-3.4,0 -5.9,-1.4 -7.5,-4.1c-1.4,-2.3 -2.1,-5.2 -2,-8.8l0.3,-17.3c-4.3,14.5 -9,25 -14.2,31.5c-3.4,1.2 -7.2,1.9 -11.3,1.9c-2,0 -4,-0.2 -5.9,-0.5c-0.7,-0.1 -1.1,-0.3 -1.1,-0.4c0,-0.2 0.4,-0.4 1.1,-0.8c5.1,-2.5 10.3,-6.6 15.5,-12.4c-1.3,-4.7 -3,-8.8 -5.1,-12.2c-1.5,-2.4 -3.6,-5.1 -6.3,-8.1l0,2.9l-6.6,-6l1.7,-14.2c5.5,4.1 9.6,8.5 12.5,12.9c3.2,5.1 5.8,11.8 7.6,20.2c6.4,-9.5 9.6,-18.3 9.6,-26.5c0,-1.4 -0.1,-2.8 -0.3,-4.2c2.1,-1.2 5,-3.1 8.4,-5.7c0,10.6 -0.2,21.1 -0.7,31.5c0,0.5 0,1.2 0,2.1c0,3.5 0.5,5.8 1.6,6.8c0.6,0.6 1.8,0.9 3.6,0.9l1.6,0l0,10.5l-0.1,0z" class="st4" id="XMLID_123_"/>
   <path d="m659.6,319.6c0,1 -1.1,2.8 -3.2,5.4c-2.8,3.3 -6.4,6 -10.6,8.1c-5.7,2.8 -12.1,4.2 -19.3,4.2l-7.8,0l0,-10.4l7.6,0l0,-7.3c0,-12.2 -1.4,-21.5 -4.2,-28l6.9,-6.1l5.6,11.1l-2.8,0l0,24.3c5.6,-7.1 11.2,-10.7 17.1,-10.7c2.9,0 5.5,1.1 7.8,3.3c1.9,2 2.9,4 2.9,6.1zm-8.5,3.3c0,-1.7 -0.6,-3.1 -1.9,-4.1c-1.2,-1 -2.7,-1.5 -4.4,-1.5c-2.4,0 -5,1.2 -7.9,3.7c-2.1,1.8 -3.9,3.8 -5.7,6.1c10.1,0 16.7,-1.4 19.9,-4.2z" class="st4" id="XMLID_125_"/>
   <path d="m672.5,286.6c0.7,3.3 1,7.9 1,14c0,10 -0.9,21 -2.8,32.9l-3.9,5.8l0,-14.4c0,-13.3 -1.1,-23.5 -3.4,-30.5l9.1,-7.8z" class="st4" id="XMLID_128_"/>
   <path d="m410.9,414.2c0,3.2 -0.8,7.4 -2.5,12.9c-2.2,2.6 -5.2,4.8 -9.1,6.7c-4.8,2.3 -9.9,3.5 -15.3,3.5c-6.6,0 -11.3,-1.8 -14.1,-5.3c-1.8,-2.3 -2.7,-5 -2.7,-8.3c0,-4.7 2.7,-11 8.1,-18.9c0.2,-0.1 0.3,-0.1 0.5,-0.1c1.2,0 2,0.5 2.3,1.5c-2.9,4.6 -4.3,8.5 -4.3,11.7c0,3.1 1.3,5.5 3.9,7.1c2.1,1.3 4.8,1.9 8.2,1.9c4.5,0 8.8,-0.8 12.9,-2.4c3.7,-1.5 6.1,-3 7.3,-4.7c-1.1,-5.9 -3.5,-10.5 -7,-14l4.2,-10.4c1.9,2.2 3.6,5 5.1,8.6c1.6,3.9 2.5,7.3 2.5,10.2zm-14.3,-23.7l-6.2,5.8l-6,-6l6.3,-5.7l5.9,5.9z" class="st5" id="XMLID_155_"/>
   <path d="m432.8,415.4l-2.3,0c-4.9,0 -8,-2 -9.5,-6c-1,-2.7 -1.7,-8.8 -2,-18.2c-0.2,-4.7 -0.3,-7.9 -0.6,-9.7c-0.4,-3.5 -1.2,-6.6 -2.4,-9.4l7,-7.3c1.2,1.9 1.9,4.7 2.2,8.6c0.1,1.4 0.2,4.4 0.2,8.9l0,11.3c0,3.4 0.2,5.8 0.7,7.3c0.9,2.7 2.6,4.1 5.2,4.1l1.6,0l0,10.4l-0.1,0z" class="st5" id="XMLID_241_"/>
   <path d="m464.5,415.4l-34,0l0,-10.5l34,0l0,10.5z" class="st5" id="XMLID_244_"/>
   <path d="m485,415.4l-34,0l0,-10.5l34,0l0,10.5z" class="st5" id="XMLID_246_"/>
   <path d="m516.7,415.4l-34,0l0,-10.5l34,0l0,10.5z" class="st5" id="XMLID_248_"/>
   <path d="m532.6,399c-0.9,5.4 -2.1,9.1 -3.7,11c-2.9,3.6 -6.9,5.4 -12.1,5.4l-2.4,0l0,-10.4l4,0c5.5,0 8.3,-0.8 8.3,-2.5c0,-1.1 -1.4,-3.7 -4.3,-7.6l5.9,-8c2.8,3.9 4.3,7.9 4.3,12.1zm5.3,26.7l-5.3,5.3l-5.3,-4.7l-4.9,4.9l-5.6,-4.9l5.3,-5.4l5.4,4.8l4.9,-5l5.5,5z" class="st5" id="XMLID_250_"/>
   <path d="m570.6,415.4l-2.3,0c-1.8,0 -3.6,-0.6 -5.3,-1.9c-1.7,9.4 -6,17.3 -13,23.6c-1,0 -2.9,-0.5 -5.5,-1.5c-3.1,-1.2 -5.5,-2.5 -7.2,-3.9c11.9,-5.7 18.8,-11.2 20.5,-16.4c-1,-3 -3.6,-5.9 -7.8,-8.9l5.2,-10.3c3.2,3.7 5.4,5.9 6.5,6.7c1.8,1.4 3.9,2 6.4,2l2.4,0l0,10.6l0.1,0z" class="st5" id="XMLID_253_"/>
   <path d="m591.6,415.4l-2.7,0c-2.1,0 -4,-0.9 -5.8,-2.7c-1.7,-1.7 -2.7,-3.6 -3.1,-5.7c-0.3,2 -1.4,3.8 -3.2,5.6c-1.9,1.9 -3.9,2.8 -5.8,2.8l-2.7,0l0,-10.4l2.3,0c2.6,0 4.6,-1.1 6.1,-3.4c1.2,-1.9 1.8,-4 1.8,-6.3l3.2,0c0,2.7 0.6,5 1.7,6.7c1.3,2 3.3,3.1 5.9,3.1l2.3,0l0,10.3zm-1.5,-35.2l-5.3,5.3l-5.4,-4.7l-4.9,4.9l-5.6,-4.9l5.3,-5.4l5.3,4.8l4.9,-5l5.7,5z" class="st5" id="XMLID_255_"/>
   <path d="m647.6,415.4l-3.3,0c-2.1,0 -4.1,-0.9 -5.8,-2.8c-1.6,-1.7 -2.6,-3.7 -2.9,-5.9c-0.4,2.2 -1.4,4.1 -3,5.8c-1.9,1.9 -4.1,2.9 -6.6,2.9c-4.1,0 -6.7,-2.6 -7.8,-7.8c-2.1,5.2 -5,7.8 -8.6,7.8c-2.2,0 -4,-0.9 -5.5,-2.7c-1.1,-1.3 -1.9,-2.9 -2.4,-4.7c-2.1,4.9 -5.1,7.3 -9.1,7.3l-3.1,0l0,-10.4l3.8,0c2.3,0 4.2,-1.1 5.5,-3.4c1.1,-1.9 1.7,-3.9 1.7,-6.2l3.4,0c0,6.4 2,9.5 6.1,9.5c2.7,0 4.7,-1.2 5.9,-3.7c0.9,-1.7 1.3,-3.6 1.3,-5.8l3.4,0c0,2.9 0.3,5.1 0.8,6.4c0.9,2.1 2.5,3.1 5,3.1c2.8,0 4.9,-1.2 6.3,-3.7c1,-1.8 1.5,-3.7 1.5,-5.8l3.4,0c0,6.4 2.2,9.5 6.6,9.5l3.4,0l0,10.6zm-30.4,-32.4l4.9,-4.6l4.8,4.9l-5,4.5l-4.7,-4.8zm5.5,-8.6l4.9,-4.6l4.8,4.8l-5.1,4.5l-4.6,-4.7zm5.2,8.7l4.9,-4.6l4.7,4.8l-5,4.5l-4.6,-4.7z" class="st5" id="XMLID_258_"/>
   <path d="m673.4,405.7c-2.2,5.5 -4.6,9.1 -7,10.8c-4.2,0 -8.4,-2.1 -12.6,-6.2c-1.8,3.4 -3.9,5 -6.2,5l-2.3,0l0,-10.3l3.4,0c1,0 2.4,-1.8 4.4,-5.4c2.5,-4.4 4.5,-7.4 6,-9c5.1,0 8.8,1.2 11.1,3.7c2.2,2.4 3.2,6.2 3.2,11.4zm-5.8,3.3c0.1,-0.5 0.1,-1 0.1,-1.5c0,-4.8 -2.6,-7.8 -7.7,-8.9c-1.5,1 -2.4,2.5 -3,4.4c2,2.8 5.5,4.8 10.6,6z" class="st5" id="XMLID_263_"/>
  </g>
 </g>
</svg>