<?xml version="1.0" standalone="no"?>
<!DOCTYPE svg PUBLIC "-//W3C//DTD SVG 20010904//EN"
 "http://www.w3.org/TR/2001/REC-SVG-20010904/DTD/svg10.dtd">
<svg version="1.0" xmlns="http://www.w3.org/2000/svg"
 width="205.000000pt" height="216.000000pt" viewBox="0 0 205.000000 216.000000"
 preserveAspectRatio="xMidYMid meet">
<metadata>
Created by potrace 1.16, written by Peter Selinger 2001-2019
</metadata>
<g transform="translate(0.000000,216.000000) scale(0.100000,-0.100000)"
fill="#000000" stroke="none">
<path d="M1095 2033 c-116 -20 -212 -37 -214 -39 -2 -2 4 -40 13 -86 8 -46 32
-188 52 -315 43 -271 17 -245 207 -213 66 12 121 19 124 16 2 -2 -18 -40 -46
-85 -28 -44 -51 -83 -51 -85 0 -2 52 -36 115 -76 63 -40 115 -73 115 -75 0 -1
-50 -33 -110 -70 -61 -38 -113 -72 -116 -76 -2 -4 19 -44 47 -89 28 -44 50
-83 47 -85 -3 -3 -171 23 -268 42 l-25 5 -49 -299 c-27 -164 -50 -309 -53
-323 l-5 -25 232 -39 c127 -21 233 -37 234 -35 2 2 18 94 36 204 17 110 35
209 39 219 6 16 15 7 51 -52 25 -40 48 -72 52 -72 8 0 377 227 392 241 6 5 3
16 -6 26 -24 28 -261 417 -261 429 0 13 254 428 265 432 12 5 10 32 -2 32 -6
0 -37 16 -68 37 -130 83 -313 193 -321 193 -5 0 -28 -32 -52 -72 -36 -61 -44
-69 -50 -53 -4 11 -22 111 -40 223 -30 189 -33 202 -53 201 -12 -1 -115 -17
-231 -36z m230 -25 c10 -50 56 -343 61 -396 5 -53 3 -61 -31 -115 -22 -34 -45
-59 -58 -62 -61 -12 -280 -45 -283 -42 -7 7 -95 569 -90 574 7 7 321 60 363
62 26 1 34 -3 38 -21z m386 -386 c87 -53 159 -101 159 -105 0 -4 -57 -100
-127 -213 l-126 -205 -20 30 c-10 17 -21 31 -24 31 -3 0 -32 -16 -64 -35 l-58
-36 -115 72 -115 72 22 37 c199 330 284 459 296 455 7 -3 85 -49 172 -103z
m13 -742 l149 -243 -22 -18 c-32 -26 -321 -202 -325 -198 -2 2 -26 42 -54 89
-49 82 -51 87 -42 130 15 76 15 77 -39 84 -27 3 -55 14 -63 24 -18 21 -98 151
-101 163 -2 11 324 218 338 215 5 -1 76 -112 159 -246z m-486 -156 c114 -18
172 -31 172 -39 0 -15 -66 -432 -80 -507 -6 -28 -13 -54 -16 -57 -5 -6 -383
54 -391 62 -4 4 39 285 78 516 11 61 12 63 38 58 14 -3 104 -17 199 -33z"/>
<path d="M647 1959 c-173 -52 -296 -125 -422 -254 -88 -89 -163 -206 -201
-310 -23 -63 -24 -77 -24 -323 l0 -257 33 -80 c89 -220 293 -422 511 -506 88
-34 217 -69 257 -69 l26 0 46 282 c25 155 45 284 43 285 -1 2 -29 8 -62 14
-83 15 -178 54 -256 106 -215 141 -322 418 -258 667 52 206 223 392 408 447
45 13 57 30 20 28 -13 0 -67 -14 -121 -30z"/>
</g>
</svg>
